<svg width="21" height="21" viewBox="0 0 21 21" fill="none" xmlns="http://www.w3.org/2000/svg">
<g clip-path="url(#clip0_0_79)">
<g clip-path="url(#clip1_0_79)">
<path fill-rule="evenodd" clip-rule="evenodd" d="M17.7895 2.90561C16.5256 2.90561 15.4976 3.93434 15.4976 5.199C15.4976 5.79385 15.7304 6.33152 16.1036 6.73994L14.0853 10.7285C13.8471 10.6444 13.5946 10.5897 13.3276 10.5897C12.8411 10.5897 12.3922 10.7444 12.0205 11.0038L9.45916 9.76321C9.48557 9.62435 9.50238 9.4826 9.50238 9.33653C9.50238 8.07187 8.47429 7.04314 7.21043 7.04314C5.94705 7.04314 4.91897 8.07187 4.91897 9.33653C4.91897 9.91072 5.13841 10.4301 5.48847 10.8328L3.46303 13.8032C3.29256 13.7624 3.11585 13.735 2.93338 13.735C1.66904 13.735 0.64047 14.7637 0.64047 16.0284C0.64047 17.2925 1.66904 18.3218 2.93338 18.3218C4.19628 18.3218 5.22437 17.2925 5.22437 16.0284C5.22437 15.471 5.01644 14.9665 4.68511 14.5686L6.7264 11.5761C6.88246 11.6097 7.04381 11.6294 7.21043 11.6294C7.80587 11.6294 8.34416 11.3959 8.75232 11.0221L11.1557 12.1863C11.0841 12.4074 11.0356 12.6385 11.0356 12.8831C11.0356 14.1477 12.0637 15.1764 13.3276 15.1764C14.5914 15.1764 15.6195 14.1477 15.6195 12.8831C15.6195 12.4203 15.4793 11.9913 15.2435 11.6304L17.3593 7.44867C17.499 7.47558 17.6416 7.4924 17.7895 7.4924C19.0534 7.4924 20.081 6.46366 20.081 5.199C20.081 3.93434 19.0534 2.90561 17.7895 2.90561Z" fill="#1CA78B"/>
</g>
</g>
<defs>
<clipPath id="clip0_0_79">
<rect width="20.733" height="20.733" fill="white" transform="scale(1.01288)"/>
</clipPath>
<clipPath id="clip1_0_79">
<rect width="20.2275" height="15.3729" fill="white" transform="translate(0 2.79383) scale(1.01288)"/>
</clipPath>
</defs>
</svg>
