<svg width="18" height="16" viewBox="0 0 18 16" fill="none" xmlns="http://www.w3.org/2000/svg">
<path d="M15.375 2.375H13.125C12.9637 2.375 12.8205 2.26653 12.7695 2.10425L12.5325 1.35375C12.2767 0.543875 11.562 0 10.7535 0H7.24648C6.43799 0 5.72323 0.543875 5.46824 1.35297L5.23125 2.10425C5.1795 2.26653 5.03624 2.375 4.87501 2.375H2.62501C1.17749 2.375 0 3.61794 0 5.14585V12.2708C0 13.7988 1.17749 15.0417 2.62501 15.0417H15.375C16.8225 15.0417 18 13.7988 18 12.2708V5.14585C18 3.61794 16.8225 2.375 15.375 2.375ZM17.25 12.2708C17.25 13.3618 16.4085 14.25 15.375 14.25H2.62501C1.59152 14.25 0.750023 13.3618 0.750023 12.2708V5.14585C0.750023 4.05494 1.59152 3.16669 2.62501 3.16669H4.87501C5.3595 3.16669 5.78851 2.84054 5.94225 2.35522L6.18001 1.60313C6.33301 1.11785 6.76202 0.791654 7.24651 0.791654H10.7535C11.238 0.791654 11.667 1.11781 11.8208 1.6039L12.0578 2.35518C12.2115 2.84046 12.6405 3.16665 13.125 3.16665H15.375C16.4085 3.16665 17.25 4.0549 17.25 5.14581V12.2708H17.25Z" fill="#4F4F4F"/>
<path d="M9 3.95898C6.51825 3.95898 4.5 6.08936 4.5 8.70898C4.5 11.3286 6.51825 13.459 9 13.459C11.4818 13.459 13.5 11.3286 13.5 8.70898C13.5 6.08936 11.4818 3.95898 9 3.95898ZM9 12.6673C6.93225 12.6673 5.24999 10.8916 5.24999 8.70898C5.24999 6.52636 6.93225 4.75064 9 4.75064C11.0677 4.75064 12.75 6.52636 12.75 8.70898C12.75 10.8916 11.0677 12.6673 9 12.6673Z" fill="#4F4F4F"/>
<path d="M8.99999 5.54297C7.3455 5.54297 6 6.96322 6 8.70962C6 8.92812 6.16801 9.10547 6.37501 9.10547C6.58201 9.10547 6.74999 8.92812 6.74999 8.70962C6.74999 7.40022 7.7595 6.33462 8.99999 6.33462C9.20699 6.33462 9.375 6.15728 9.375 5.93878C9.375 5.72028 9.20699 5.54297 8.99999 5.54297Z" fill="#4F4F4F"/>
</svg>
