<svg width="43" height="43" viewBox="0 0 43 43" fill="none" xmlns="http://www.w3.org/2000/svg">
<path d="M20.1524 5.68403C14.7636 6.2497 10.0794 9.40558 7.6083 14.1196C7.2808 14.7547 6.83422 15.7967 6.61588 16.4517L6.21892 17.6426L4.00583 17.6724C2.79509 17.6823 1.7729 17.7319 1.74313 17.7816C1.71335 17.8312 1.71335 18.5358 1.74313 19.3397L1.79275 20.8184L8.29306 20.8283L14.7934 20.8481V21.7214V22.6047L8.27322 22.6345L1.74313 22.6543V24.2422V25.84L3.95621 25.83C5.16696 25.83 6.20899 25.8201 6.27846 25.83C6.33801 25.83 6.42733 25.9789 6.4571 26.1476C6.56626 26.624 7.18156 28.1622 7.57853 28.9065C8.17398 30.0577 9.14654 31.4173 10.0298 32.3601C12.3917 34.861 14.9422 36.3099 18.376 37.1039C19.4379 37.3421 19.7555 37.3718 21.4426 37.3718C23.0007 37.3818 23.5167 37.3421 24.4198 37.1634C25.968 36.8558 28.1314 36.1214 28.2208 35.8733C28.2505 35.784 27.0299 33.68 26.7421 33.3129C26.6726 33.2335 26.484 33.2632 26.0672 33.4319C25.7496 33.561 25.0053 33.7892 24.4099 33.9381C23.4175 34.1862 23.1694 34.206 21.4922 34.206C19.7654 34.1961 19.5867 34.1763 18.4951 33.8885C15.5377 33.1144 13.1658 31.5067 11.3398 29.0554C10.8039 28.3409 9.90078 26.6438 9.73207 26.0484L9.67252 25.83L12.233 25.8499L14.7934 25.8797L14.8232 27.6362L14.843 29.4027H16.3812H17.9195L17.9393 27.6362L17.9691 25.8797L20.202 25.8598L22.435 25.83L23.4969 27.5965L24.5488 29.3531L26.3947 29.3829L28.2406 29.4027L28.2505 27.795C28.2505 26.9019 28.2902 26.098 28.32 25.9988C28.3895 25.83 28.7368 25.8201 34.8402 25.8003L41.2909 25.7804L41.3206 24.8376C41.3405 24.3216 41.3206 23.617 41.2909 23.2696L41.2214 22.6543H34.7806C31.2377 22.6543 28.3398 22.6444 28.3299 22.6245C28.2704 22.4459 28.2605 21.3443 28.32 21.1359L28.3895 20.858L34.7608 20.868C39.2564 20.868 41.142 20.8382 41.1916 20.7687C41.2313 20.7092 41.271 20.0046 41.271 19.2007L41.2909 17.7419L39.0579 17.6922C36.9242 17.6426 36.825 17.6327 36.7952 17.4441C36.7258 17.0273 36.2295 15.6181 35.8822 14.8639C33.7386 10.2094 29.3323 6.78561 24.3206 5.89244C23.0007 5.66418 21.2242 5.57486 20.1524 5.68403ZM24.0824 9.05824C27.1787 9.69338 29.9674 11.5095 31.8133 14.0997C32.4881 15.0425 33.3813 16.7991 33.4706 17.3449L33.5302 17.6922L30.9201 17.6724L28.32 17.6426L28.3001 15.5784C28.2803 14.4471 28.2505 13.4943 28.2208 13.4646C28.1811 13.4348 27.4963 13.405 26.6825 13.3951L25.2137 13.3852L25.1641 15.5189L25.1145 17.6426L23.1694 17.6724C21.4128 17.6922 21.2143 17.6823 21.0754 17.5235C20.996 17.4243 20.4104 16.4617 19.7654 15.3898C18.3859 13.0974 18.6737 13.2661 16.3217 13.3752L14.843 13.4447L14.8232 15.5486L14.7934 17.6426L12.233 17.6724C10.0993 17.6922 9.67252 17.6724 9.6229 17.5533C9.54351 17.3449 10.1191 15.9754 10.6947 15.0127C12.6001 11.837 15.5873 9.71323 19.0806 9.06816C19.6661 8.959 20.3112 8.84983 20.4998 8.82006C21.1845 8.74066 23.1297 8.86968 24.0824 9.05824ZM19.428 20.9374C19.6165 21.1558 20.4005 22.4856 20.4005 22.5849C20.4005 22.6245 19.8547 22.6444 19.1898 22.6345L17.9691 22.6047L17.9393 21.8207C17.9195 21.384 17.9294 20.9771 17.9592 20.8977C18.0386 20.6893 19.2394 20.7191 19.428 20.9374ZM25.1145 21.7115V22.6047L24.6381 22.6345C24.2015 22.6642 24.1519 22.6444 23.9931 22.3566C23.9037 22.1879 23.6755 21.8207 23.5068 21.5428C23.3281 21.2749 23.1793 20.997 23.1793 20.9275C23.1793 20.8283 23.4274 20.7985 24.1519 20.8084L25.1145 20.8184V21.7115Z" fill="white"/>
</svg>
