<svg width="10" height="10" viewBox="0 0 10 10" fill="none" xmlns="http://www.w3.org/2000/svg">
<path fill-rule="evenodd" clip-rule="evenodd" d="M8.91566 7.56129L6.83874 6.72002C6.64358 6.63966 6.52164 6.48029 6.52164 6.30239V5.70686C6.57136 5.65646 6.62376 5.60061 6.67717 5.53877C6.94724 5.23065 7.16255 4.88684 7.31942 4.51607C7.62611 4.40246 7.82597 4.15591 7.82597 3.87885V3.17326C7.82597 3.00354 7.74703 2.83899 7.6083 2.71095V1.77243C7.62006 1.67572 7.66877 1.09816 7.15416 0.622502C6.7074 0.209226 5.98251 0 4.99931 0C4.01645 0 3.2929 0.209226 2.84614 0.622502C2.3312 1.09816 2.37823 1.67572 2.39099 1.77243V2.71095C2.25226 2.83899 2.17399 3.00354 2.17399 3.17326V3.87885C2.17399 4.09326 2.29391 4.29295 2.49949 4.42671C2.69801 5.0661 3.11554 5.5483 3.26099 5.70223V6.2855C3.26099 6.45631 3.14611 6.61296 2.96102 6.69469L1.02217 7.55284C0.392004 7.83208 0 8.36659 0 8.94931V9.80747H9.99997V8.98364C9.99997 8.37776 9.58344 7.8329 8.91566 7.56129Z" fill="black"/>
</svg>
