<svg width="21" height="21" viewBox="0 0 21 21" fill="none" xmlns="http://www.w3.org/2000/svg">
<g clip-path="url(#clip0_0_85)">
<path fill-rule="evenodd" clip-rule="evenodd" d="M4.41807 9.30988C3.08238 8.5025 2.28176 8.01725 2.0162 7.85367C1.53166 7.56761 1.07444 7.17364 0.645276 6.67318C0.21539 6.17194 0.000536387 5.70693 0.000536387 5.27752C0.000536387 4.74569 0.16271 4.30279 0.486519 3.94866C0.811046 3.59406 1.27383 3.41699 1.87578 3.41699H19.1254C19.6331 3.41699 20.0729 3.57681 20.4436 3.89722C20.8145 4.21763 21.0006 4.60297 21.0006 5.05262C21.0006 5.59119 20.8088 6.10513 20.426 6.59586C20.0434 7.0866 19.5671 7.50566 18.9968 7.85305L18.0246 8.44178C15.6521 9.87858 14.148 10.7894 13.5124 11.1754C13.4345 11.2231 13.268 11.3272 13.0138 11.4872C12.7603 11.6476 12.5496 11.7769 12.3817 11.8755C12.2132 11.9748 12.0102 12.0851 11.7722 12.2082C11.5339 12.3302 11.3092 12.4227 11.0987 12.4839C10.8872 12.5452 10.692 12.5758 10.5122 12.5758H10.489C10.3092 12.5758 10.1139 12.5452 9.90249 12.4839C9.69177 12.4227 9.46703 12.3308 9.22898 12.2082C8.99022 12.0851 8.78723 11.9748 8.61948 11.8755C8.45156 11.7769 8.24084 11.6476 7.98661 11.4872C7.7331 11.3272 7.56661 11.2231 7.48858 11.1754C6.77786 10.7397 5.75465 10.1179 4.41807 9.30988ZM13.9928 12.6432C15.3209 11.8051 17.2663 10.6294 19.8283 9.11694C20.2737 8.85095 20.6642 8.55453 21.0006 8.22737V16.3435C21.0006 16.7938 20.8172 17.1785 20.4499 17.4989C20.0825 17.8193 19.6408 17.9792 19.1253 17.9792H1.87574C1.36009 17.9792 0.918341 17.8193 0.551023 17.4989C0.183884 17.1785 0.000494571 16.7938 0.000494571 16.3435V8.22737C0.3439 8.56127 0.738547 8.85769 1.1839 9.11694C4.01205 10.793 5.95328 11.9687 7.00831 12.6432C7.45348 12.9299 7.81522 13.1529 8.09193 13.3127C8.36935 13.4733 8.73882 13.6369 9.19946 13.8035C9.66027 13.9708 10.09 14.0541 10.4889 14.0541H10.5121C10.9111 14.0541 11.3401 13.9708 11.8016 13.8035C12.2622 13.6369 12.6317 13.4733 12.9084 13.3127C13.1858 13.1529 13.5476 12.9299 13.9928 12.6432Z" fill="#5A5F5E"/>
</g>
<defs>
<clipPath id="clip0_0_85">
<rect width="20.733" height="20.733" fill="white" transform="scale(1.01288)"/>
</clipPath>
</defs>
</svg>
