<svg width="86" height="24" viewBox="0 0 86 24" fill="none" xmlns="http://www.w3.org/2000/svg">
<path fill-rule="evenodd" clip-rule="evenodd" d="M77.7437 20.562C75.182 20.7638 73.0536 19.0638 73.0536 16.0964C73.0536 13.1322 75.1776 11.4659 77.7355 11.6598C83.0302 12.0607 83.037 20.1452 77.7437 20.562ZM85.9088 9.39466H85.9073V9.08425C85.9073 8.92028 85.7736 8.78745 85.6084 8.78745H82.534C82.369 8.78745 82.2351 8.92028 82.2351 9.08425V9.38407L82.2369 9.38559H82.2351V9.45843C82.22 9.60337 82.0489 9.64924 81.9461 9.54615C81.3443 8.94284 79.3546 8.38453 77.5408 8.38453C73.2062 8.35466 69.805 11.014 69.805 16.0933C69.805 21.2622 73.0556 23.9511 77.4506 23.9217C79.0874 23.8919 80.9659 23.689 82.235 22.0091V23.6749C82.235 23.8387 82.369 23.9716 82.534 23.9716H85.6084C85.7736 23.9716 85.9073 23.8387 85.9073 23.6749V23.1089L85.9088 22.6048V9.39466Z" fill="#F16521"/>
<path fill-rule="evenodd" clip-rule="evenodd" d="M14.8267 17.4198C15.0674 19.2423 16.6629 20.5572 19.2514 20.5572C20.606 20.5572 22.3819 20.049 23.2247 19.1828L25.5726 21.4832C24.0074 23.0967 21.4487 23.8735 19.1911 23.8735C14.0739 23.8735 11.0338 20.7362 11.0338 16.0154C11.0338 11.5338 14.1042 8.3069 18.9203 8.3069C23.8871 8.3069 26.9872 11.3546 26.4155 17.4198H14.8267ZM22.8917 14.4041C22.6509 12.492 21.1459 11.536 19.0388 11.536C17.0521 11.536 15.4265 12.492 14.8848 14.4041H22.8917Z" fill="#F16521"/>
<mask id="mask0_5_18522" style="mask-type:luminance" maskUnits="userSpaceOnUse" x="0" y="8" width="12" height="16">
<path fill-rule="evenodd" clip-rule="evenodd" d="M5.83959 24.0004H0V8.88185H11.6792V24.0004H5.83959Z" fill="white"/>
</mask>
<g mask="url(#mask0_5_18522)">
<path fill-rule="evenodd" clip-rule="evenodd" d="M7.85651 8.88185C6.35163 8.88185 4.81608 9.15093 3.6725 10.9734V9.53267C3.6725 9.36883 3.53861 9.236 3.37343 9.236H0.29919C0.134007 9.236 0 9.36883 0 9.53267V10.4095V10.9564V11.4416V12.8723V21.0595V21.8289L0.00351988 21.8328L0 21.8349V22.9146V23.7035C0 23.8675 0.134007 24.0004 0.29919 24.0004H3.37343C3.53861 24.0004 3.6725 23.8675 3.6725 23.7035V22.1668C3.6725 22.0923 3.68117 22.0218 3.6725 21.9499V19.6636V16.2319C3.6725 13.5133 5.44828 12.4973 7.37478 12.4973C8.57871 12.4973 9.27112 12.8258 10.0239 13.4532L11.6792 10.2862C10.8666 9.47949 9.39143 8.88185 7.85651 8.88185Z" fill="#F16521"/>
</g>
<mask id="mask1_5_18522" style="mask-type:luminance" maskUnits="userSpaceOnUse" x="53" y="9" width="5" height="15">
<path fill-rule="evenodd" clip-rule="evenodd" d="M53.3783 23.9899H57.0534V9.20018H53.3783L53.3783 23.9899H53.3783Z" fill="white"/>
</mask>
<g mask="url(#mask1_5_18522)">
<path fill-rule="evenodd" clip-rule="evenodd" d="M57.0534 22.1344V16.1021H57.052V9.49685C57.052 9.33302 56.9182 9.20018 56.7528 9.20018H53.6787C53.5135 9.20018 53.3794 9.33302 53.3794 9.49685V19.3504C53.3794 19.3556 53.3809 19.3605 53.3812 19.3656V21.8184L53.3861 21.8244H53.3794V22.1394C53.379 22.148 53.3783 22.157 53.3783 22.1659C53.3783 22.1747 53.379 22.1836 53.3794 22.1924V23.693C53.3794 23.857 53.5135 23.9899 53.6787 23.9899H56.7528C56.9182 23.9899 57.052 23.857 57.052 23.693V22.193C57.0522 22.1838 57.0534 22.1749 57.0534 22.1659C57.0534 22.157 57.0525 22.148 57.052 22.1393V22.1345L57.0534 22.1344Z" fill="#F16521"/>
</g>
<path fill-rule="evenodd" clip-rule="evenodd" d="M44.8814 9.04052C42.955 9.04052 41.2392 9.6379 39.9147 11.7295C39.0718 9.69764 37.2959 8.98078 35.52 8.98078C34.1051 8.98078 32.3895 9.51842 31.607 11.0124V9.51199C31.607 9.34803 31.473 9.21519 31.3078 9.21519H28.2336C28.0684 9.21519 27.9345 9.34803 27.9345 9.51199V11.391V12.8517V20.3374V21.8082V23.677C27.9345 23.8409 28.0684 23.9738 28.2336 23.9738H31.3078C31.473 23.9738 31.607 23.8409 31.607 23.677V21.8082V16.0919C31.607 14.1497 32.7809 12.3869 34.7675 12.3869C36.7842 12.3869 37.8077 14.1497 37.8077 16.0919V21.8082L37.8171 21.8195V23.6828C37.8171 23.8468 37.951 23.9796 38.1162 23.9796H41.1904C41.3556 23.9796 41.4896 23.8468 41.4896 23.6828V19.6429H41.4799V16.0919C41.4799 14.1497 42.714 12.4466 44.7008 12.4466C46.6873 12.4466 47.5002 14.0899 47.5002 16.0319V20.3374H47.4999V23.677C47.4999 23.8409 47.6339 23.9738 47.799 23.9738H50.8732C51.0386 23.9738 51.1724 23.8409 51.1724 23.677V21.8082V20.3374V16.0319C51.1724 11.61 49.0955 9.04052 44.8814 9.04052Z" fill="#F16521"/>
<path fill-rule="evenodd" clip-rule="evenodd" d="M41.4655 6.15301C40.7271 6.89331 39.5298 6.89331 38.7914 6.15301C38.053 5.41271 38.053 4.21239 38.7914 3.47209C39.5298 2.73179 40.7271 2.73179 41.4655 3.47209C42.2039 4.21239 42.2039 5.41271 41.4655 6.15301Z" fill="#F16521"/>
<path fill-rule="evenodd" clip-rule="evenodd" d="M49.0813 5.97684C48.1019 6.95874 46.5139 6.95874 45.5345 5.97684C44.5552 4.99494 44.5552 3.40292 45.5345 2.42102C46.5139 1.43925 48.1019 1.43925 49.0813 2.42102C50.0607 3.40292 50.0607 4.99494 49.0813 5.97684Z" fill="#F16521"/>
<path fill-rule="evenodd" clip-rule="evenodd" d="M57.7035 5.72483C56.3972 7.03441 54.2794 7.03441 52.9729 5.72483C51.6668 4.41525 51.6668 2.29189 52.9729 0.982185C54.2794 -0.327395 56.3972 -0.327395 57.7035 0.982185C59.0099 2.29189 59.0099 4.41525 57.7035 5.72483Z" fill="#1CA78B"/>
<path fill-rule="evenodd" clip-rule="evenodd" d="M68.9499 19.965C68.9499 19.965 68.2724 20.1852 67.8387 20.2934C67.4054 20.4023 67.0348 20.4568 66.728 20.4568C66.493 20.4568 66.2716 20.4295 66.0641 20.3754C65.856 20.3208 65.6713 20.2215 65.5085 20.0765C65.3459 19.9317 65.2145 19.7325 65.1155 19.4788C65.0162 19.2253 64.9666 18.8993 64.9666 18.5008V10.5788H68.7439C68.9074 10.5788 69.0399 10.4444 69.0399 10.2789V7.19688C69.0399 7.03128 68.9074 6.89693 68.7439 6.89693H64.9666V2.37522H63.693C63.4039 4.02332 62.8667 5.36339 62.0808 6.39558C61.295 7.42815 60.2696 8.20689 59.0053 8.73193V10.4977H61.0646V18.2292C61.0646 19.2072 61.1503 20.0586 61.3222 20.7826C61.4937 21.5071 61.7692 22.1049 62.1485 22.5757C62.5279 23.0468 63.0334 23.3953 63.6658 23.6215C64.298 23.8476 65.5034 23.9793 66.4244 23.9612C68.6077 23.9182 69.4872 23.3266 69.8849 23.0725L68.9499 19.965Z" fill="#F16521"/>
</svg>
