<svg width="16" height="16" viewBox="0 0 16 16" fill="none" xmlns="http://www.w3.org/2000/svg">
<g clip-path="url(#clip0_0_51)">
<path d="M13.2688 1.73315H12.7867V1.20723C12.7867 0.541279 12.2613 0 11.6146 0C10.9676 0 10.4425 0.541279 10.4425 1.20723V1.73271H9.23967V1.20723C9.23967 0.541279 8.7142 0 8.06756 0C7.42092 0 6.89545 0.541279 6.89545 1.20723V1.73271H5.69261V1.20723C5.69261 0.541279 5.16713 0 4.52049 0C3.87385 0 3.34838 0.541279 3.34838 1.20723V1.73271H2.73291C1.70435 1.73271 0.867188 2.56987 0.867188 3.59843V14.1343C0.867188 15.1628 1.70435 16 2.73291 16H13.2688C14.2978 16 15.1345 15.1628 15.1345 14.1343V3.59843C15.1345 2.57031 14.2973 1.73315 13.2688 1.73315ZM11.101 1.20723C11.101 0.904766 11.3315 0.65849 11.6146 0.65849C11.8982 0.65849 12.1283 0.904766 12.1283 1.20723V3.35655C12.1283 3.65901 11.8982 3.90529 11.6146 3.90529C11.3315 3.90529 11.101 3.65901 11.101 3.35655V1.20723ZM7.55394 1.20723C7.55394 0.904766 7.78441 0.65849 8.06756 0.65849C8.35071 0.65849 8.58118 0.904766 8.58118 1.20723V3.35655C8.58118 3.65901 8.35071 3.90529 8.06756 3.90529C7.78441 3.90529 7.55394 3.65901 7.55394 3.35655V1.20723ZM4.00643 1.20723C4.00643 0.904766 4.2369 0.65849 4.52005 0.65849C4.8032 0.65849 5.03368 0.904766 5.03368 1.20723V3.35655C5.03368 3.65901 4.8032 3.90529 4.52005 3.90529C4.2369 3.90529 4.00643 3.65901 4.00643 3.35655V1.20723ZM14.037 14.1347C14.037 14.5583 13.6924 14.903 13.2688 14.903H2.73291C2.30928 14.903 1.96467 14.5583 1.96467 14.1347V4.47686H14.037V14.1347Z" fill="#979797"/>
<path d="M4.9703 6.4209H2.95312V8.21594H4.9703V6.4209Z" fill="#979797"/>
<path d="M7.66215 6.4209H5.64453V8.21594H7.66215V6.4209Z" fill="#979797"/>
<path d="M10.357 6.4209H8.33984V8.21594H10.357V6.4209Z" fill="#979797"/>
<path d="M13.0489 6.4209H11.0312V8.21594H13.0489V6.4209Z" fill="#979797"/>
<path d="M4.9703 8.81641H2.95312V10.6101H4.9703V8.81641Z" fill="#979797"/>
<path d="M7.66215 8.81641H5.64453V10.6101H7.66215V8.81641Z" fill="#979797"/>
<path d="M10.357 8.81641H8.33984V10.6101H10.357V8.81641Z" fill="#979797"/>
<path d="M13.0489 8.81641H11.0312V10.6101H13.0489V8.81641Z" fill="#979797"/>
<path d="M4.9703 11.2119H2.95312V13.0056H4.9703V11.2119Z" fill="#979797"/>
<path d="M7.66215 11.2119H5.64453V13.0056H7.66215V11.2119Z" fill="#979797"/>
<path d="M10.357 11.2119H8.33984V13.0056H10.357V11.2119Z" fill="#979797"/>
<path d="M13.0489 11.2119H11.0312V13.0056H13.0489V11.2119Z" fill="#979797"/>
</g>
<defs>
<clipPath id="clip0_0_51">
<rect width="16" height="16" fill="white"/>
</clipPath>
</defs>
</svg>
