<svg width="19" height="19" viewBox="0 0 19 19" fill="none" xmlns="http://www.w3.org/2000/svg">
<path d="M9.50021 13.4582C9.2981 13.4572 9.09876 13.4112 8.91664 13.3236C8.73452 13.2359 8.57419 13.1088 8.44729 12.9515L5.11435 8.91402C4.91959 8.67095 4.79703 8.37806 4.76064 8.06872C4.72425 7.75939 4.77549 7.44605 4.90851 7.16442C5.0164 6.91966 5.19246 6.71112 5.41567 6.56372C5.63888 6.41632 5.8998 6.33628 6.16727 6.33317H12.8331C13.1006 6.33628 13.3615 6.41632 13.5847 6.56372C13.808 6.71112 13.984 6.91966 14.0919 7.16442C14.2249 7.44605 14.2762 7.75939 14.2398 8.06872C14.2034 8.37806 14.0808 8.67095 13.8861 8.91402L10.5531 12.9515C10.4262 13.1088 10.2659 13.2359 10.0838 13.3236C9.90166 13.4112 9.70232 13.4572 9.50021 13.4582Z" fill="black"/>
</svg>
