<svg width="23" height="23" viewBox="0 0 23 23" fill="none" xmlns="http://www.w3.org/2000/svg">
<path d="M11.5021 12.8418L6.80618 17.5377C6.63048 17.7134 6.40687 17.8012 6.13533 17.8012C5.8638 17.8012 5.64019 17.7134 5.46449 17.5377C5.28879 17.362 5.20094 17.1384 5.20094 16.8668C5.20094 16.5953 5.28879 16.3717 5.46449 16.196L10.1604 11.5001L5.46449 6.80417C5.28879 6.62847 5.20094 6.40485 5.20094 6.13332C5.20094 5.86179 5.28879 5.63818 5.46449 5.46248C5.64019 5.28678 5.8638 5.19893 6.13533 5.19893C6.40687 5.19893 6.63048 5.28678 6.80618 5.46248L11.5021 10.1584L16.198 5.46248C16.3737 5.28678 16.5973 5.19893 16.8688 5.19893C17.1404 5.19893 17.364 5.28678 17.5397 5.46248C17.7154 5.63818 17.8032 5.86179 17.8032 6.13332C17.8032 6.40485 17.7154 6.62847 17.5397 6.80417L12.8438 11.5001L17.5397 16.196C17.7154 16.3717 17.8032 16.5953 17.8032 16.8668C17.8032 17.1384 17.7154 17.362 17.5397 17.5377C17.364 17.7134 17.1404 17.8012 16.8688 17.8012C16.5973 17.8012 16.3737 17.7134 16.198 17.5377L11.5021 12.8418Z" fill="#A5A5A5"/>
</svg>
