<svg width="34" height="34" viewBox="0 0 34 34" fill="none" xmlns="http://www.w3.org/2000/svg">
<path d="M15.934 4.49406C11.6731 4.94134 7.96929 7.4367 6.01538 11.164C5.75642 11.6663 5.40331 12.4902 5.23067 13.0081L4.91679 13.9497L3.1669 13.9733C2.20956 13.9811 1.40132 14.0204 1.37777 14.0596C1.35423 14.0988 1.35423 14.656 1.37777 15.2916L1.41701 16.4608L6.55682 16.4686L11.6966 16.4843V17.1749V17.8733L6.54113 17.8968L1.37777 17.9125V19.168V20.4314L3.12766 20.4235C4.085 20.4235 4.90894 20.4157 4.96387 20.4235C5.01095 20.4235 5.08158 20.5413 5.10512 20.6747C5.19144 21.0513 5.67795 22.2676 5.99184 22.8561C6.46266 23.7664 7.23167 24.8414 7.93005 25.5869C9.79765 27.5644 11.8143 28.71 14.5294 29.3378C15.369 29.5261 15.6202 29.5497 16.9542 29.5497C18.1861 29.5575 18.5942 29.5261 19.3083 29.3849C20.5324 29.1416 22.2431 28.5609 22.3137 28.3648C22.3372 28.2941 21.372 26.6306 21.1445 26.3402C21.0895 26.2774 20.9404 26.301 20.6109 26.4344C20.3598 26.5364 19.7712 26.7169 19.3004 26.8346C18.5157 27.0308 18.3195 27.0465 16.9934 27.0465C15.628 27.0386 15.4868 27.0229 14.6236 26.7953C12.2852 26.1833 10.4097 24.9121 8.96586 22.9738C8.54212 22.4089 7.82804 21.067 7.69464 20.5962L7.64756 20.4235L9.6721 20.4392L11.6966 20.4628L11.7202 21.8517L11.7359 23.2485H12.9522H14.1685L14.1841 21.8517L14.2077 20.4628L15.9733 20.4471L17.7389 20.4235L18.5785 21.8203L19.4103 23.2092L20.8698 23.2328L22.3294 23.2485L22.3372 21.9773C22.3372 21.271 22.3686 20.6354 22.3922 20.5569C22.4471 20.4235 22.7217 20.4157 27.5477 20.4L32.6482 20.3843L32.6718 19.6388C32.6875 19.2308 32.6718 18.6737 32.6482 18.399L32.5933 17.9125H27.5006C24.6992 17.9125 22.4078 17.9046 22.4 17.889C22.3529 17.7477 22.3451 16.8767 22.3922 16.7119L22.4471 16.4922L27.4849 16.5C31.0396 16.5 32.5305 16.4765 32.5698 16.4216C32.6012 16.3745 32.6325 15.8173 32.6325 15.1817L32.6482 14.0282L30.8826 13.989C29.1955 13.9497 29.1171 13.9419 29.0935 13.7928C29.0386 13.4632 28.6462 12.3489 28.3716 11.7526C26.6766 8.07231 23.1926 5.36508 19.2298 4.65884C18.1861 4.47836 16.7815 4.40774 15.934 4.49406ZM19.0415 7.16205C21.4897 7.66426 23.6948 9.10027 25.1543 11.1483C25.6879 11.8938 26.3941 13.2827 26.4648 13.7143L26.5118 13.989L24.4481 13.9733L22.3922 13.9497L22.3765 12.3176C22.3608 11.423 22.3372 10.6697 22.3137 10.6461C22.2823 10.6226 21.7408 10.5991 21.0974 10.5912L19.936 10.5834L19.8968 12.2705L19.8576 13.9497L18.3195 13.9733C16.9306 13.989 16.7737 13.9811 16.6638 13.8556C16.601 13.7771 16.1381 13.0159 15.628 12.1685C14.5373 10.3558 14.7648 10.4892 12.9051 10.5755L11.7359 10.6304L11.7202 12.294L11.6966 13.9497L9.6721 13.9733C7.98498 13.989 7.64756 13.9733 7.60833 13.8791C7.54555 13.7143 8.00068 12.6314 8.45581 11.8703C9.96244 9.35922 12.3244 7.67995 15.0866 7.1699C15.5495 7.08358 16.0596 6.99726 16.2087 6.97372C16.7501 6.91094 18.2881 7.01296 19.0415 7.16205ZM15.3612 16.555C15.5103 16.7276 16.1302 17.7791 16.1302 17.8576C16.1302 17.889 15.6986 17.9046 15.1729 17.8968L14.2077 17.8733L14.1841 17.2533C14.1685 16.9081 14.1763 16.5863 14.1998 16.5236C14.2626 16.3588 15.2121 16.3823 15.3612 16.555ZM19.8576 17.167V17.8733L19.4809 17.8968C19.1356 17.9203 19.0964 17.9046 18.9708 17.6771C18.9002 17.5437 18.7197 17.2533 18.5863 17.0336C18.4451 16.8218 18.3274 16.602 18.3274 16.5471C18.3274 16.4686 18.5236 16.4451 19.0964 16.4529L19.8576 16.4608V17.167Z" fill="#1CA78B"/>
</svg>
