<svg width="28" height="28" viewBox="0 0 28 28" fill="none" xmlns="http://www.w3.org/2000/svg">
<path d="M13.9965 3.06201C9.68355 3.06201 6.18751 6.64872 6.1875 11.0423C6.19028 13.8663 7.72499 16.3864 10.0908 17.8145V19.8234H11.2512V20.0758C11.1169 20.1057 10.9968 20.1812 10.9107 20.2895C10.8246 20.3978 10.7776 20.5326 10.7776 20.6715C10.7776 20.8104 10.8246 20.9452 10.9107 21.0536C10.9968 21.1619 11.1169 21.2372 11.2512 21.2672V21.5985C11.1169 21.6284 10.9968 21.7038 10.9107 21.8121C10.8246 21.9204 10.7776 22.0553 10.7776 22.1942C10.7776 22.3331 10.8246 22.4679 10.9107 22.5763C10.9968 22.6846 11.1169 22.7599 11.2512 22.7899V24.172H11.8007C11.7986 24.1838 11.7936 24.2125 11.7936 24.2125C11.7936 24.2134 11.8286 24.4283 11.829 24.4292C11.8293 24.4302 11.9085 24.5807 11.9092 24.5816C11.9105 24.5834 12.0597 24.7321 12.0625 24.7339C12.0652 24.7357 12.1414 24.7761 12.1686 24.7888C12.1958 24.8036 12.2099 24.8066 12.2299 24.8154C12.31 24.842 12.3703 24.8538 12.428 24.8629C12.5434 24.8806 12.664 24.8943 12.8195 24.9082C13.1305 24.9318 13.5408 24.9376 13.9964 24.9376C14.4519 24.9376 14.8623 24.9318 15.1733 24.9082C15.3288 24.8993 15.4587 24.8815 15.5743 24.8629C15.632 24.8541 15.6801 24.8423 15.7606 24.8154C15.7807 24.8095 15.804 24.8036 15.8313 24.7888C15.8586 24.7741 15.9371 24.7359 15.9398 24.7339C15.9426 24.732 16.0894 24.5834 16.0908 24.5816C16.0915 24.5807 16.1706 24.4301 16.171 24.4292C16.1713 24.4282 16.2063 24.2134 16.2063 24.2125C16.2063 24.2123 16.2014 24.1859 16.1992 24.172H16.7511V22.7995C16.8952 22.7789 17.027 22.7063 17.1224 22.5954C17.2178 22.4844 17.2703 22.3424 17.2703 22.1954C17.2703 22.0484 17.2178 21.9063 17.1224 21.7954C17.027 21.6844 16.8952 21.612 16.7511 21.5913V21.2768C16.8935 21.2544 17.0233 21.1814 17.1171 21.0709C17.2108 20.9603 17.2624 20.8195 17.2624 20.6739C17.2624 20.5283 17.2108 20.3875 17.1171 20.277C17.0233 20.1664 16.8935 20.0934 16.7511 20.0711V19.8233H17.9092V17.805C20.2703 16.3745 21.8117 13.864 21.8125 11.0423C21.8125 6.64872 18.3093 3.06201 13.9964 3.06201H13.9965ZM13.9965 4.2868C17.6498 4.2868 20.6097 7.30104 20.6097 11.0423C20.609 13.5741 19.226 15.8829 17.0272 17.0401L16.697 17.2117V18.5985H11.296V17.2117L10.9729 17.0401C8.77552 15.8837 7.39277 13.5724 7.39033 11.0423C7.39034 7.30104 10.3431 4.2868 13.9965 4.2868ZM13.9871 9.25038C13.8282 9.25477 13.6774 9.32228 13.5675 9.43826C13.4575 9.55425 13.3973 9.70941 13.3998 9.86998V15.2219C13.3923 15.3063 13.4023 15.3914 13.4291 15.4716C13.4559 15.5519 13.499 15.6257 13.5556 15.6882C13.6121 15.7507 13.681 15.8006 13.7577 15.8348C13.8344 15.869 13.9174 15.8866 14.0012 15.8866C14.0851 15.8866 14.168 15.869 14.2447 15.8348C14.3215 15.8006 14.3903 15.7507 14.4469 15.6882C14.5035 15.6257 14.5465 15.5519 14.5733 15.4716C14.6002 15.3914 14.6101 15.3063 14.6026 15.2219V9.86998C14.6039 9.78807 14.5888 9.70674 14.5583 9.63083C14.5278 9.55493 14.4825 9.48599 14.425 9.42817C14.3676 9.37035 14.2992 9.3248 14.224 9.29427C14.1487 9.26373 14.0681 9.24878 13.9871 9.25038H13.9871ZM10.0625 10.8684C10.0428 10.8683 10.0232 10.8691 10.0036 10.8708C9.90383 10.8801 9.80795 10.9144 9.72456 10.9704C9.64117 11.0265 9.57289 11.1026 9.52587 11.1919C9.47885 11.2813 9.45456 11.3811 9.45519 11.4823C9.45583 11.5834 9.48137 11.6829 9.52951 11.7716L11.9823 16.5088C12.017 16.5835 12.0663 16.6503 12.1272 16.7052C12.1881 16.7601 12.2594 16.8019 12.3368 16.8282C12.4142 16.8545 12.496 16.8646 12.5774 16.858C12.6587 16.8514 12.7379 16.8283 12.8102 16.79C12.8825 16.7516 12.9463 16.6989 12.9978 16.6349C13.0493 16.5709 13.0875 16.497 13.11 16.4177C13.1324 16.3384 13.1388 16.2554 13.1286 16.1736C13.1184 16.0918 13.0919 16.0129 13.0507 15.9417L10.6003 11.2044C10.5501 11.1037 10.4733 11.019 10.3784 10.9597C10.2835 10.9004 10.1741 10.8687 10.0625 10.8684H10.0625ZM17.7394 10.8708C17.6317 10.8748 17.527 10.9078 17.4362 10.9665C17.3453 11.0251 17.2717 11.1073 17.2229 11.2044L14.7724 15.9417C14.7322 16.0134 14.7066 16.0927 14.6973 16.1747C14.688 16.2567 14.6951 16.3397 14.7182 16.4188C14.7414 16.4979 14.7801 16.5715 14.832 16.6352C14.8839 16.6989 14.948 16.7514 15.0205 16.7895C15.0929 16.8276 15.1722 16.8506 15.2536 16.8571C15.3351 16.8636 15.4169 16.8534 15.4944 16.8272C15.5718 16.801 15.6433 16.7593 15.7044 16.7046C15.7656 16.6499 15.8152 16.5833 15.8503 16.5088L18.2913 11.7716C18.3421 11.6771 18.3673 11.5706 18.3642 11.4631C18.3612 11.3556 18.3301 11.2509 18.274 11.1595C18.218 11.068 18.1391 10.9932 18.0452 10.9425C17.9513 10.8918 17.8458 10.8671 17.7394 10.8708ZM12.454 19.8234H15.546V20.0664H12.4541L12.454 19.8234ZM12.454 21.2817H15.546V21.5891H12.4541L12.454 21.2817ZM12.454 22.8044H15.546V22.9567H12.4541L12.454 22.8044Z" fill="#F16521"/>
</svg>
