<svg width="108" height="31" viewBox="0 0 108 31" fill="none" xmlns="http://www.w3.org/2000/svg">
<path fill-rule="evenodd" clip-rule="evenodd" d="M97.7362 25.7773C94.5155 26.0317 91.84 23.8886 91.84 20.148C91.84 16.4114 94.51 14.3109 97.726 14.5551C104.382 15.0606 104.391 25.2519 97.7362 25.7773ZM108.001 11.7043H107.999V11.313C107.999 11.1063 107.831 10.9389 107.623 10.9389H103.758C103.55 10.9389 103.382 11.1063 103.382 11.313V11.6911L103.384 11.6929H103.382V11.7847C103.363 11.9674 103.148 12.0252 103.019 11.8953C102.262 11.1349 99.7611 10.431 97.4809 10.431C92.0317 10.3935 87.7559 13.7458 87.7559 20.1485C87.7559 26.6643 91.8422 30.054 97.3673 30.0166C99.4252 29.9793 101.787 29.7237 103.382 27.6061V29.7057C103.382 29.9121 103.55 30.0797 103.758 30.0797H107.623C107.831 30.0797 107.999 29.9121 107.999 29.7057V28.9921L108.001 28.3566V11.7043Z" fill="#F16521"/>
<path fill-rule="evenodd" clip-rule="evenodd" d="M18.6374 21.8059C18.94 24.1033 20.9457 25.7608 24.1998 25.7608C25.9028 25.7608 28.1354 25.1202 29.1948 24.0283L32.1465 26.9282C30.1788 28.9621 26.9623 29.9414 24.1241 29.9414C17.6911 29.9414 13.8691 25.9866 13.8691 20.0356C13.8691 14.3861 17.7292 10.3184 23.7835 10.3184C30.0275 10.3184 33.925 14.1602 33.2063 21.8059H18.6374ZM28.7788 18.0021C28.4762 15.5916 26.5842 14.3864 23.935 14.3864C21.4376 14.3864 19.394 15.5916 18.713 18.0021H28.7788Z" fill="#F16521"/>
<path fill-rule="evenodd" clip-rule="evenodd" d="M9.87678 11.0293C7.98477 11.0293 6.05452 11.3685 4.61687 13.6659V11.8499C4.61687 11.6432 4.4484 11.4757 4.24074 11.4757H0.376126C0.168308 11.4757 0 11.6432 0 11.8499V12.955V13.6445V14.2563V16.0596V26.3802V27.3503L0.00426697 27.3551L0 27.3576V28.7187V29.7132C0 29.9199 0.168308 30.0875 0.375968 30.0875H4.24074C4.4484 30.0875 4.61687 29.9199 4.61687 29.7132V27.7761C4.61687 27.682 4.62761 27.5934 4.61687 27.5025V24.6206V20.2945C4.61687 16.8677 6.84928 15.5868 9.27119 15.5868C10.7847 15.5868 11.6552 16.001 12.6013 16.7919L14.6823 12.7996C13.6608 11.7827 11.8064 11.0293 9.87678 11.0293Z" fill="#F16521"/>
<mask id="mask0_5_18723" style="mask-type:luminance" maskUnits="userSpaceOnUse" x="67" y="11" width="5" height="20">
<path fill-rule="evenodd" clip-rule="evenodd" d="M67.1074 30.0872H71.7276V11.4434H67.1074V30.0872H67.1074Z" fill="white"/>
</mask>
<g mask="url(#mask0_5_18723)">
<path fill-rule="evenodd" clip-rule="evenodd" d="M71.7276 27.7482V20.1439H71.726V11.8175C71.726 11.6108 71.5576 11.4434 71.3499 11.4434H67.4851C67.2776 11.4434 67.109 11.6108 67.109 11.8175V24.2387C67.109 24.2454 67.1107 24.2516 67.1111 24.2581V27.3499L67.1174 27.3573H67.109V27.7544C67.1084 27.7655 67.1074 27.7766 67.1074 27.7879C67.1074 27.799 67.1084 27.8101 67.109 27.8212V29.7129C67.109 29.9196 67.2776 30.0872 67.4851 30.0872H71.3499C71.5576 30.0872 71.726 29.9196 71.726 29.7129V27.8219C71.726 27.8104 71.7276 27.7993 71.7276 27.7879C71.7276 27.7766 71.7265 27.7655 71.726 27.7544V27.7483L71.7276 27.7482Z" fill="#F16521"/>
</g>
<path fill-rule="evenodd" clip-rule="evenodd" d="M47.5351 27.9945V27.7158C47.5317 27.7625 47.5195 27.8083 47.5195 27.8553C47.5195 27.902 47.5317 27.9478 47.5351 27.9945Z" fill="#F16521"/>
<path fill-rule="evenodd" clip-rule="evenodd" d="M56.4162 11.255C53.9944 11.255 51.8372 12.008 50.1722 14.6447C49.1127 12.0833 46.8801 11.1797 44.6474 11.1797C42.8688 11.1797 40.712 11.8574 39.7282 13.7407V11.8493C39.7282 11.6426 39.5599 11.4752 39.3522 11.4752H35.4875C35.2798 11.4752 35.1113 11.6426 35.1113 11.8493V14.2179V16.0593V25.4954V27.3498V29.7055C35.1113 29.9121 35.2798 30.0797 35.4875 30.0797H39.3522C39.5599 30.0797 39.7282 29.9121 39.7282 29.7055V27.3498V20.1438C39.7282 17.6955 41.2039 15.4733 43.7015 15.4733C46.2367 15.4733 47.5233 17.6955 47.5233 20.1438V27.3498L47.5353 27.3639V29.7128C47.5353 29.9195 47.7036 30.0871 47.9113 30.0871H51.7761C51.9837 30.0871 52.1522 29.9195 52.1522 29.7128V24.62H52.1399V20.1438C52.1399 17.6955 53.6916 15.5486 56.1891 15.5486C58.6865 15.5486 59.7084 17.6202 59.7084 20.0682V25.4954H59.7081V29.7055C59.7081 29.9121 59.8765 30.0797 60.084 30.0797H63.9488C64.1566 30.0797 64.3249 29.9121 64.3249 29.7055V27.3498V25.4954V20.0682C64.3249 14.4941 61.7137 11.255 56.4162 11.255Z" fill="#F16521"/>
<path fill-rule="evenodd" clip-rule="evenodd" d="M52.1205 7.60676C51.1922 8.53997 49.6872 8.53997 48.7587 7.60676C47.8304 6.67355 47.8304 5.16046 48.7587 4.22725C49.6872 3.29404 51.1922 3.29404 52.1205 4.22725C53.0488 5.16046 53.0488 6.67355 52.1205 7.60676Z" fill="#F16521"/>
<path fill-rule="evenodd" clip-rule="evenodd" d="M61.6928 7.37834C60.4616 8.6161 58.4652 8.6161 57.234 7.37834C56.0027 6.14057 56.0027 4.13387 57.234 2.8961C58.4652 1.65833 60.4616 1.65833 61.6928 2.8961C62.9241 4.13387 62.9241 6.14057 61.6928 7.37834Z" fill="#F16521"/>
<path fill-rule="evenodd" clip-rule="evenodd" d="M86.6735 25.0161C86.6735 25.0161 85.8217 25.2937 85.2766 25.4301C84.7318 25.5674 84.266 25.636 83.8802 25.636C83.5848 25.636 83.3064 25.6017 83.0456 25.5334C82.784 25.4646 82.5517 25.3394 82.3469 25.1567C82.1427 24.9742 81.9776 24.723 81.8531 24.4032C81.7281 24.0837 81.6658 23.6727 81.6658 23.1704V13.184H86.4143C86.6199 13.184 86.7866 13.0147 86.7866 12.8061V8.92071C86.7866 8.71196 86.6199 8.54276 86.4143 8.54276H81.6658V2.84277H80.0649C79.7014 4.92033 79.0258 6.60961 78.0379 7.91077C77.05 9.21224 75.7611 10.1941 74.1719 10.8559V13.0819H76.7603V22.828C76.7603 24.0607 76.8683 25.134 77.0842 26.0467C77.2999 26.9601 77.6461 27.7136 78.1231 28.3072C78.5999 28.901 79.2355 29.3403 80.0306 29.6255C80.8252 29.9106 82.3406 30.0767 83.4984 30.0536C86.2431 29.9994 87.3488 29.2537 87.8488 28.9334L86.6735 25.0161Z" fill="#F16521"/>
<path fill-rule="evenodd" clip-rule="evenodd" d="M72.5361 7.21657C70.8938 8.86756 68.2313 8.86756 66.589 7.21657C64.9469 5.56574 64.9469 2.88908 66.589 1.23824C68.2313 -0.412748 70.8938 -0.412748 72.5361 1.23824C74.1784 2.88908 74.1784 5.56574 72.5361 7.21657Z" fill="#1CA78B"/>
</svg>
