<svg width="28" height="28" viewBox="0 0 28 28" fill="none" xmlns="http://www.w3.org/2000/svg">
<g clip-path="url(#clip0_5_19911)">
<path fill-rule="evenodd" clip-rule="evenodd" d="M1.6954 12.3033C1.6954 5.51803 7.21494 -0.00150702 14.0002 -0.00150702C20.7854 -0.00150702 26.3049 5.51803 26.3049 12.3033V12.3242C25.8161 11.9542 25.2507 11.6834 24.6267 11.5621C24.2433 6.02789 19.6301 1.63913 14.0002 1.63913C8.37028 1.63913 3.75703 6.02789 3.37361 11.5622C2.74962 11.6834 2.18415 11.9542 1.6954 12.3242V12.3033ZM7.43757 11.4837C6.08054 11.4837 4.97661 12.5876 4.97661 13.9447V20.6166C4.97661 21.9736 6.08054 23.0775 7.43757 23.0775C8.79459 23.0775 9.89852 21.9736 9.89852 20.6166V13.9447C9.89852 12.5876 8.79459 11.4837 7.43757 11.4837ZM3.33604 13.9435C3.33604 13.7069 3.36727 13.4783 3.40593 13.2526C2.41728 13.5721 1.6954 14.4904 1.6954 15.5841V18.9748C1.6954 20.0685 2.41728 20.9868 3.40593 21.3064C3.36727 21.0807 3.33604 20.8521 3.33604 20.6154V13.9435ZM18.1016 13.9447C18.1016 12.5876 19.2055 11.4837 20.5625 11.4837C21.9196 11.4837 23.0235 12.5876 23.0235 13.9447V20.6166V22.2572C23.0235 24.5187 21.1834 26.3588 18.9219 26.3588H16.3098C15.9701 27.3116 15.068 27.9994 14 27.9994C12.643 27.9994 11.539 26.8955 11.539 25.5385C11.539 24.1815 12.643 23.0775 14 23.0775C15.068 23.0775 15.9701 23.7654 16.3098 24.7182H18.9219C20.0323 24.7182 20.9622 23.9745 21.2676 22.9622C21.0428 23.0301 20.8092 23.0775 20.5625 23.0775C19.2055 23.0775 18.1016 21.9736 18.1016 20.6166V13.9447ZM24.5944 13.2526C24.6331 13.4783 24.6643 13.7069 24.6643 13.9435V20.6154C24.6643 20.8521 24.6331 21.0807 24.5944 21.3064C25.5831 20.9868 26.305 20.0685 26.305 18.9748V15.5841C26.305 14.4904 25.5831 13.5721 24.5944 13.2526Z" fill="black"/>
</g>
<defs>
<clipPath id="clip0_5_19911">
<rect width="27.2165" height="27.2165" fill="white" transform="scale(1.02879)"/>
</clipPath>
</defs>
</svg>
