<svg width="28" height="28" viewBox="0 0 28 28" fill="none" xmlns="http://www.w3.org/2000/svg">
<g clip-path="url(#clip0_0_139)">
<path d="M23.6241 22.751H5.79705L9.04549 16.2541L13.4391 19.9225C13.5363 20.0035 13.6499 20.0625 13.772 20.0954C13.8942 20.1283 14.022 20.1343 14.1467 20.1131C14.2714 20.0919 14.3901 20.044 14.4945 19.9726C14.5989 19.9011 14.6866 19.808 14.7516 19.6994L19.9064 11.1255L20.3363 12.4675C20.3926 12.6445 20.5037 12.7989 20.6535 12.9086C20.8033 13.0183 20.984 13.0776 21.1697 13.0778C21.26 13.0781 21.3498 13.0637 21.4355 13.0352C21.6558 12.9637 21.839 12.8081 21.9453 12.6023C22.0516 12.3965 22.0724 12.157 22.0031 11.936L20.8908 8.53332C20.8561 8.42372 20.8001 8.32205 20.7261 8.23415C20.652 8.14625 20.5613 8.07385 20.4591 8.0211C20.357 7.96836 20.2454 7.93631 20.1309 7.92679C20.0163 7.91728 19.901 7.93049 19.7916 7.96566L16.471 9.02551C16.2615 9.10513 16.0905 9.26198 15.9932 9.46382C15.8958 9.66565 15.8795 9.89711 15.9476 10.1106C16.0157 10.3241 16.163 10.5034 16.3592 10.6116C16.5554 10.7198 16.7856 10.7487 17.0025 10.6924L18.3774 10.256L13.7771 17.9374L9.31127 14.2033C9.20968 14.1191 9.09044 14.0588 8.96239 14.027C8.83433 13.9951 8.70075 13.9925 8.57154 14.0193C8.44234 14.046 8.32081 14.1016 8.21598 14.1817C8.11115 14.2619 8.0257 14.3646 7.96596 14.4822L5.24908 19.9061V4.37597C5.2564 4.25663 5.2392 4.13706 5.19857 4.02461C5.15793 3.91217 5.0947 3.80923 5.01279 3.72214C4.93087 3.63505 4.83199 3.56564 4.72224 3.5182C4.61249 3.47076 4.49419 3.44629 4.37463 3.44629C4.25506 3.44629 4.13677 3.47076 4.02702 3.5182C3.91727 3.56564 3.81839 3.63505 3.73647 3.72214C3.65455 3.80923 3.59133 3.91217 3.55069 4.02461C3.51005 4.13706 3.49286 4.25663 3.50018 4.37597V23.6238C3.50564 23.6646 3.51331 23.7052 3.52314 23.7452C3.52928 23.8088 3.54248 23.8715 3.56252 23.9322C3.58538 23.9828 3.61284 24.0311 3.64455 24.0766C3.67095 24.1252 3.7017 24.1713 3.73643 24.2144C3.78125 24.258 3.83077 24.2965 3.88408 24.3293C3.91459 24.3583 3.94752 24.3846 3.98252 24.408H4.01861L4.06783 24.4244C4.16482 24.4639 4.26829 24.485 4.37299 24.4868H23.6241C23.7434 24.4941 23.863 24.4769 23.9754 24.4362C24.0879 24.3956 24.1908 24.3324 24.2779 24.2505C24.365 24.1685 24.4344 24.0697 24.4819 23.9599C24.5293 23.8502 24.5538 23.7319 24.5538 23.6123C24.5538 23.4927 24.5293 23.3744 24.4819 23.2647C24.4344 23.1549 24.365 23.0561 24.2779 22.9741C24.1908 22.8922 24.0879 22.829 23.9754 22.7884C23.863 22.7477 23.7434 22.7305 23.6241 22.7379V22.751Z" fill="#F16521"/>
</g>
<defs>
<clipPath id="clip0_0_139">
<rect width="21" height="21" fill="white" transform="translate(3.5 3.5)"/>
</clipPath>
</defs>
</svg>
