<svg width="20" height="20" viewBox="0 0 20 20" fill="none" xmlns="http://www.w3.org/2000/svg">
<g clip-path="url(#clip0_5_19846)">
<path d="M9.99995 -0.00101013C4.46998 -0.00101013 0 4.46897 0 9.99894C0 15.5289 4.46998 19.9989 9.99995 19.9989C15.5299 19.9989 19.9999 15.5289 19.9999 9.99894C19.9999 4.46897 15.5299 -0.00101013 9.99995 -0.00101013ZM14.2999 14.2989C14.2074 14.3916 14.0975 14.4652 13.9766 14.5153C13.8556 14.5655 13.7259 14.5914 13.5949 14.5914C13.464 14.5914 13.3343 14.5655 13.2133 14.5153C13.0923 14.4652 12.9824 14.3916 12.8899 14.2989L9.99995 11.4089L7.10996 14.2989C6.92299 14.4859 6.66939 14.5909 6.40497 14.5909C6.14054 14.5909 5.88695 14.4859 5.69997 14.2989C5.51299 14.1119 5.40795 13.8583 5.40795 13.5939C5.40795 13.463 5.43374 13.3333 5.48384 13.2124C5.53395 13.0914 5.60739 12.9815 5.69997 12.8889L8.58996 9.99894L5.69997 7.10895C5.51299 6.92198 5.40795 6.66838 5.40795 6.40396C5.40795 6.13953 5.51299 5.88594 5.69997 5.69896C5.88695 5.51198 6.14054 5.40694 6.40497 5.40694C6.66939 5.40694 6.92299 5.51198 7.10996 5.69896L9.99995 8.58894L12.8899 5.69896C12.9825 5.60638 13.0924 5.53294 13.2134 5.48283C13.3344 5.43273 13.464 5.40694 13.5949 5.40694C13.7259 5.40694 13.8555 5.43273 13.9765 5.48283C14.0974 5.53294 14.2073 5.60638 14.2999 5.69896C14.3925 5.79154 14.4659 5.90145 14.5161 6.02242C14.5662 6.14338 14.5919 6.27303 14.5919 6.40396C14.5919 6.53489 14.5662 6.66453 14.5161 6.7855C14.4659 6.90646 14.3925 7.01637 14.2999 7.10895L11.4099 9.99894L14.2999 12.8889C14.6799 13.2689 14.6799 13.9089 14.2999 14.2989Z" fill="black"/>
</g>
<defs>
<clipPath id="clip0_5_19846">
<rect width="19.3353" height="19.3353" fill="white" transform="scale(1.03437)"/>
</clipPath>
</defs>
</svg>
