<svg width="85" height="76" viewBox="0 0 85 76" fill="none" xmlns="http://www.w3.org/2000/svg">
<g filter="url(#filter0_d_5_19637)">
<circle cx="44.5" cy="31.5" r="28.5" fill="#5DD7A0"/>
</g>
<path fill-rule="evenodd" clip-rule="evenodd" d="M54.5044 24.1642C55.0769 24.6838 55.1198 25.5692 54.6001 26.1417L43.4455 38.4307C42.9522 38.9741 42.1231 39.0444 41.5454 38.5919L34.5738 33.1301C33.9651 32.6532 33.8583 31.7733 34.3351 31.1646C34.8119 30.556 35.6919 30.4491 36.3006 30.9259L42.2473 35.5848L52.5268 24.2598C53.0465 23.6873 53.9319 23.6445 54.5044 24.1642Z" fill="white"/>
<circle cx="82.5" cy="14.5" r="2.5" fill="#5DD7A0"/>
<circle cx="2.5" cy="50.5" r="2.5" fill="#5DD7A0"/>
<circle cx="10.5" cy="47.5" r="1.5" fill="#5DD7A0"/>
<circle cx="4" cy="4" r="4" transform="matrix(1 0 0 -1 12 8)" fill="#5DD7A0"/>
<circle cx="1" cy="1" r="1" transform="matrix(1 0 0 -1 71 60)" fill="#5DD7A0"/>
<circle cx="78.5" cy="24.5" r="1.5" fill="#5DD7A0"/>
<defs>
<filter id="filter0_d_5_19637" x="12" y="3" width="65" height="73" filterUnits="userSpaceOnUse" color-interpolation-filters="sRGB">
<feFlood flood-opacity="0" result="BackgroundImageFix"/>
<feColorMatrix in="SourceAlpha" type="matrix" values="0 0 0 0 0 0 0 0 0 0 0 0 0 0 0 0 0 0 127 0" result="hardAlpha"/>
<feMorphology radius="8" operator="erode" in="SourceAlpha" result="effect1_dropShadow_5_19637"/>
<feOffset dy="12"/>
<feGaussianBlur stdDeviation="6"/>
<feColorMatrix type="matrix" values="0 0 0 0 0.364706 0 0 0 0 0.843137 0 0 0 0 0.627451 0 0 0 1 0"/>
<feBlend mode="normal" in2="BackgroundImageFix" result="effect1_dropShadow_5_19637"/>
<feBlend mode="normal" in="SourceGraphic" in2="effect1_dropShadow_5_19637" result="shape"/>
</filter>
</defs>
</svg>
