<svg width="100" height="100" viewBox="0 0 100 100" fill="none" xmlns="http://www.w3.org/2000/svg">
<g clip-path="url(#clip0_5_19290)">
<path d="M50.002 96.127C75.4772 96.127 96.1289 75.4752 96.1289 50C96.1289 24.5248 75.4772 3.87305 50.002 3.87305C24.5267 3.87305 3.875 24.5248 3.875 50C3.875 75.4752 24.5267 96.127 50.002 96.127Z" fill="#1CA78B"/>
<path d="M50 100C22.4322 100 0 77.5717 0 50C0 22.4322 22.4322 0 50 0C77.5717 0 100 22.4322 100 50C100 77.5717 77.5717 100 50 100ZM50 7.7459C26.7002 7.7459 7.7459 26.7002 7.7459 50C7.7459 73.2998 26.7002 92.2541 50 92.2541C73.2998 92.2541 92.2541 73.2959 92.2541 50C92.2541 26.7002 73.2998 7.7459 50 7.7459Z" fill="#1CA78B"/>
<path d="M43.9569 68.3972C42.919 68.3972 41.9274 67.9827 41.1954 67.2392L26.9042 52.7155C25.4053 51.1896 25.4247 48.7419 26.9506 47.2392C28.4766 45.7442 30.9282 45.7597 32.427 47.2857L43.8446 58.889L67.4659 32.8743C68.9104 31.2903 71.3583 31.178 72.9344 32.611C74.5184 34.048 74.6346 36.4956 73.1977 38.0835L46.8229 67.1306C46.1065 67.9206 45.0995 68.3776 44.0344 68.4009C44.0073 68.3972 43.984 68.3972 43.9569 68.3972Z" fill="white"/>
</g>
<defs>
<clipPath id="clip0_5_19290">
<rect width="100" height="100" fill="white"/>
</clipPath>
</defs>
</svg>
