<svg width="28" height="19" viewBox="0 0 28 19" fill="none" xmlns="http://www.w3.org/2000/svg">
<path fill-rule="evenodd" clip-rule="evenodd" d="M5.76371 7.68866C4.02099 6.63524 2.97639 6.00213 2.62991 5.7887C1.99771 5.41546 1.40117 4.90143 0.841216 4.24847C0.280327 3.59448 0 2.98776 0 2.42749C0 1.7336 0.211594 1.15573 0.634079 0.693686C1.0575 0.231024 1.66132 0 2.4467 0H24.9529C25.6153 0 26.1891 0.208515 26.6728 0.626568C27.1568 1.04462 27.3996 1.54739 27.3996 2.13406C27.3996 2.83675 27.1493 3.50731 26.6498 4.14759C26.1506 4.78787 25.5292 5.33463 24.7851 5.78788L23.5146 6.55731C20.4202 8.43121 18.4585 9.6192 17.6294 10.1227C17.5278 10.1849 17.3106 10.3208 16.9789 10.5295C16.6481 10.7388 16.3732 10.9074 16.1541 11.0362C15.9343 11.1657 15.6695 11.3095 15.3589 11.4702C15.0481 11.6294 14.7548 11.7501 14.4801 11.8299C14.2043 11.9099 13.9495 11.9498 13.7149 11.9498H13.6847C13.4501 11.9498 13.1953 11.9099 12.9194 11.8299C12.6445 11.7501 12.3513 11.6302 12.0407 11.4702C11.7292 11.3095 11.4643 11.1657 11.2455 11.0362C11.0264 10.9074 10.7514 10.7388 10.4197 10.5295C10.089 10.3208 9.87174 10.1849 9.76993 10.1227C8.84262 9.55425 7.50761 8.7429 5.76371 7.68866ZM18.2562 12.0378C19.9891 10.9443 22.5273 9.41038 25.8701 7.43696C26.4512 7.08991 26.9607 6.70316 27.3996 6.27631V16.8658C27.3996 17.4533 27.1603 17.9552 26.681 18.3733C26.2018 18.7913 25.6254 18.9998 24.9529 18.9998H2.4467C1.77392 18.9998 1.19755 18.7913 0.718294 18.3733C0.239275 17.9552 0 17.4533 0 16.8658V6.27631C0.448054 6.71196 0.962965 7.09871 1.54403 7.43696C5.23402 9.62381 7.76682 11.1577 9.14336 12.0378C9.72418 12.4119 10.1962 12.7028 10.5572 12.9113C10.9192 13.1209 11.4012 13.3343 12.0022 13.5516C12.6035 13.77 13.1641 13.8786 13.6847 13.8786H13.7149C14.2355 13.8786 14.7952 13.77 15.3973 13.5516C15.9984 13.3343 16.4804 13.1209 16.8414 12.9113C17.2034 12.7028 17.6754 12.4119 18.2562 12.0378Z" fill="black"/>
</svg>
