<svg width="19" height="19" viewBox="0 0 19 19" fill="none" xmlns="http://www.w3.org/2000/svg">
<g clip-path="url(#clip0_0_168)">
<path d="M9.50106 4.17962C3.26842 4.17962 0.000995859 8.77165 0.000995859 9.49966C0.000995859 10.2279 3.26842 14.8197 9.50106 14.8197C15.7333 14.8197 19.0011 10.2279 19.0011 9.49966C19.0011 8.77165 15.7333 4.17962 9.50106 4.17962ZM9.50106 13.5921C7.16924 13.5921 5.27863 11.7599 5.27863 9.49966C5.27863 7.23944 7.16924 5.40723 9.50106 5.40723C11.8329 5.40723 13.7233 7.23944 13.7233 9.49966C13.7233 11.7599 11.8329 13.5921 9.50106 13.5921ZM11.6121 9.49966C11.6121 10.6297 10.6667 11.5461 9.50106 11.5461C8.33505 11.5461 7.39005 10.6297 7.39005 9.49966C7.39005 8.36965 8.33505 7.45344 9.50106 7.45344C10.1311 7.45344 9.11446 9.07505 9.50106 9.49966C9.82966 9.86026 11.6121 8.98065 11.6121 9.49966Z" fill="#6A6E7A"/>
<line x1="0.664176" y1="2.8989" x2="18.8995" y2="16.3354" stroke="#6A6E7A" stroke-width="0.931598" stroke-linecap="round"/>
</g>
<defs>
<clipPath id="clip0_0_168">
<rect width="18.632" height="18.632" fill="white" transform="scale(1.01976)"/>
</clipPath>
</defs>
</svg>
