<svg width="28" height="28" viewBox="0 0 28 28" fill="none" xmlns="http://www.w3.org/2000/svg">
<g clip-path="url(#clip0_0_107)">
<path d="M16.796 7.58317C17.6913 7.75786 18.5142 8.19574 19.1592 8.84078C19.8042 9.48582 20.2421 10.3087 20.4168 11.204M16.796 3.9165C18.6561 4.12315 20.3908 4.95616 21.715 6.27876C23.0393 7.60136 23.8745 9.33493 24.0835 11.1948M23.1668 18.5098V21.2598C23.1678 21.5151 23.1155 21.7678 23.0133 22.0017C22.911 22.2357 22.761 22.4456 22.5729 22.6182C22.3848 22.7908 22.1627 22.9222 21.9208 23.004C21.679 23.0858 21.4227 23.1161 21.1685 23.0932C18.3477 22.7867 15.6382 21.8228 13.2576 20.279C11.0428 18.8716 9.16503 16.9938 7.75764 14.779C6.20846 12.3876 5.24436 9.66492 4.94348 6.8315C4.92057 6.57802 4.95069 6.32253 5.03193 6.08133C5.11317 5.84012 5.24375 5.61847 5.41534 5.43049C5.58694 5.24251 5.7958 5.09232 6.02862 4.98948C6.26144 4.88664 6.51312 4.83341 6.76764 4.83317H9.51764C9.96251 4.82879 10.3938 4.98633 10.7311 5.27641C11.0684 5.56649 11.2887 5.96933 11.351 6.40984C11.467 7.2899 11.6823 8.154 11.9926 8.98567C12.116 9.31377 12.1427 9.67034 12.0696 10.0131C11.9964 10.3559 11.8266 10.6706 11.5801 10.9198L10.416 12.084C11.7209 14.3789 13.6211 16.2791 15.916 17.584L17.0801 16.4198C17.3294 16.1734 17.644 16.0035 17.9868 15.9304C18.3296 15.8573 18.6862 15.884 19.0143 16.0073C19.846 16.3177 20.7101 16.5329 21.5901 16.649C22.0354 16.7118 22.4421 16.9361 22.7328 17.2792C23.0235 17.6223 23.178 18.0603 23.1668 18.5098Z" stroke="#F16521" stroke-width="1.5" stroke-linecap="round" stroke-linejoin="round"/>
</g>
<defs>
<clipPath id="clip0_0_107">
<rect width="22" height="22" fill="white" transform="translate(3 3)"/>
</clipPath>
</defs>
</svg>
