<svg width="25" height="25" viewBox="0 0 25 25" fill="none" xmlns="http://www.w3.org/2000/svg">
<g clip-path="url(#clip0_0_91)">
<path fill-rule="evenodd" clip-rule="evenodd" d="M1.51367 10.9849C1.51367 4.92666 6.4418 -0.00146484 12.5 -0.00146484C18.5582 -0.00146484 23.4863 4.92666 23.4863 10.9849V11.0035C23.0499 10.6732 22.545 10.4314 21.9879 10.3231C21.6456 5.38188 17.5267 1.46338 12.5 1.46338C7.47334 1.46338 3.35439 5.38188 3.01206 10.3232C2.45493 10.4314 1.95005 10.6732 1.51367 11.0036V10.9849ZM6.64057 10.2531C5.42895 10.2531 4.44331 11.2388 4.44331 12.4504V18.4074C4.44331 19.619 5.42895 20.6047 6.64057 20.6047C7.85219 20.6047 8.83784 19.619 8.83784 18.4074V12.4504C8.83784 11.2388 7.85219 10.2531 6.64057 10.2531ZM2.97852 12.4494C2.97852 12.2381 3.0064 12.034 3.04092 11.8325C2.1582 12.1178 1.51367 12.9377 1.51367 13.9142V16.9415C1.51367 17.9181 2.1582 18.738 3.04092 19.0233C3.0064 18.8218 2.97852 18.6177 2.97852 18.4064V12.4494ZM16.1619 12.4504C16.1619 11.2388 17.1476 10.2531 18.3592 10.2531C19.5708 10.2531 20.5565 11.2388 20.5565 12.4504V18.4074V19.8723C20.5565 21.8914 18.9136 23.5344 16.8944 23.5344H14.5622C14.2588 24.385 13.4535 24.9992 12.4998 24.9992C11.2882 24.9992 10.3026 24.0136 10.3026 22.8019C10.3026 21.5903 11.2882 20.6047 12.4998 20.6047C13.4535 20.6047 14.2588 21.2188 14.5622 22.0695H16.8944C17.8858 22.0695 18.7161 21.4055 18.9887 20.5017C18.788 20.5623 18.5794 20.6047 18.3592 20.6047C17.1476 20.6047 16.1619 19.619 16.1619 18.4074V12.4504ZM21.9591 11.8325C21.9936 12.034 22.0215 12.2381 22.0215 12.4494V18.4064C22.0215 18.6177 21.9936 18.8218 21.9591 19.0233C22.8418 18.738 23.4864 17.9181 23.4864 16.9415V13.9142C23.4864 12.9377 22.8418 12.1178 21.9591 11.8325Z" fill="#5A5F5E"/>
</g>
<defs>
<clipPath id="clip0_0_91">
<rect width="25" height="25" fill="white"/>
</clipPath>
</defs>
</svg>
