<svg width="28" height="28" viewBox="0 0 28 28" fill="none" xmlns="http://www.w3.org/2000/svg">
<g clip-path="url(#clip0_0_132)">
<path d="M6.419 17.5278L3.72349 21.1354C3.28916 21.7185 3.05957 22.4119 3.05957 23.1406C3.05957 24.993 4.56658 26.5 6.419 26.5C8.27143 26.5 9.77844 24.9929 9.77844 23.1406C9.77844 22.412 9.5489 21.7186 9.11385 21.1344L6.419 17.5278ZM6.419 24.9536C5.41926 24.9536 4.60596 24.1403 4.60596 23.1406C4.60596 22.7472 4.72962 22.3732 4.96297 22.06L6.419 20.1113L7.87431 22.0591C8.10833 22.3733 8.23199 22.7473 8.23199 23.1406C8.23204 24.1403 7.41869 24.9536 6.419 24.9536Z" fill="#F16521"/>
<path d="M24.9404 7.68557V6.13918H21.5899V5.10825H18.6095V3.04639H21.8476V1.5H13.8249V3.04639H17.0631V5.10825H14.0827V6.13918H8.92545C5.81808 6.13918 3.29004 8.66722 3.29004 11.7746V15.7837H9.54798V12.3971H14.0827V13.428H21.5899V12.3971H24.9405V10.8507H21.5899V7.68557H24.9404ZM8.92545 10.8507C8.41602 10.8507 8.00159 11.2652 8.00159 11.7746V14.2373H4.83643V11.7746C4.83643 9.5199 6.67076 7.68557 8.92545 7.68557H14.0827V10.8507H8.92545ZM20.0435 11.8816H15.629V6.65464H20.0435V11.8816Z" fill="#F16521"/>
</g>
<defs>
<clipPath id="clip0_0_132">
<rect width="25" height="25" fill="white" transform="translate(1.5 1.5)"/>
</clipPath>
</defs>
</svg>
