<svg width="28" height="28" viewBox="0 0 28 28" fill="none" xmlns="http://www.w3.org/2000/svg">
<path fill-rule="evenodd" clip-rule="evenodd" d="M20.47 3.55751C20.7581 3.2432 21.2558 3.2432 21.5701 3.55751C25.7612 7.72235 25.7612 14.5328 21.5701 18.6977C21.413 18.8549 21.2034 18.9335 21.02 18.9335C20.8367 18.9335 20.6272 18.8549 20.47 18.6977C20.1557 18.4096 20.1557 17.9119 20.47 17.5975C24.0324 14.0352 24.0324 8.22006 20.47 4.65767C20.1557 4.36953 20.1557 3.87182 20.47 3.55751ZM4.85778 11.128C4.85778 8.69189 5.80076 6.38684 7.52959 4.65801C7.84389 4.34371 7.84389 3.84599 7.52959 3.55786C7.21528 3.24355 6.71757 3.24355 6.42943 3.55786C4.41246 5.57482 3.28613 8.2728 3.28613 11.128C3.28613 13.9831 4.41246 16.6811 6.42943 18.6981C6.58661 18.8552 6.79613 18.9338 6.97948 18.9338C7.16283 18.9338 7.37241 18.8552 7.52954 18.6981C7.84384 18.3837 7.84384 17.886 7.52954 17.5979C5.80076 15.8691 4.85778 13.564 4.85778 11.128ZM18.1389 16.0263C17.9555 16.0263 17.746 15.9478 17.5888 15.7906C17.2744 15.5024 17.2744 15.0047 17.5888 14.6643C19.5533 12.6735 19.5533 9.47787 17.5888 7.5133C17.2744 7.22516 17.2744 6.72745 17.5888 6.41314C17.8769 6.09883 18.3746 6.09883 18.6889 6.41314C19.9462 7.67043 20.6273 9.32069 20.6273 11.1019C20.6273 12.883 19.9462 14.5332 18.6889 15.7906C18.5318 15.9478 18.3222 16.0263 18.1389 16.0263ZM9.86187 16.0271C9.67852 16.0271 9.46899 15.9485 9.31181 15.7913C8.05448 14.534 7.37346 12.8838 7.37341 11.1287C7.37341 9.34755 8.05443 7.69734 9.31176 6.44C9.5999 6.12569 10.0976 6.12569 10.4119 6.44C10.7262 6.72814 10.7262 7.22585 10.4119 7.54016C8.44735 9.53095 8.44735 12.7266 10.4119 14.6912C10.7262 14.9793 10.7262 15.477 10.4119 15.7913C10.2548 15.9485 10.0452 16.0271 9.86187 16.0271ZM14.6108 14.0928V24.0025C14.6108 24.3756 14.3083 24.6781 13.9351 24.6781C13.562 24.6781 13.2595 24.3756 13.2595 24.0025V14.0387C13.1536 14.0147 13.0566 13.994 12.9786 13.9829C12.6905 13.8781 12.4286 13.7471 12.219 13.5899C12.219 13.5638 12.1928 13.5638 12.1928 13.5638C11.4332 13.0399 10.9879 12.1231 10.9879 11.1539C10.9879 9.4775 12.3238 8.1416 14.0002 8.1416C15.6766 8.1416 17.0125 9.50373 17.0387 11.1539C17.0387 12.1231 16.5934 13.0137 15.8338 13.5638H15.8076C15.5718 13.721 15.3361 13.8519 15.0741 13.9567C14.9197 14.0185 14.7652 14.0621 14.6108 14.0928Z" fill="#F16521"/>
</svg>
