<svg width="28" height="28" viewBox="0 0 28 28" fill="none" xmlns="http://www.w3.org/2000/svg">
<g clip-path="url(#clip0_0_127)">
<path d="M25.6397 5.57788L14.2856 1.6302C14.0539 1.5497 13.8036 1.5497 13.5719 1.6302L2.35597 5.57788C2.13188 5.65686 1.9371 5.80764 1.79911 6.00899C1.66112 6.21034 1.5869 6.45206 1.58691 6.70004V8.67329C1.58691 8.98721 1.7058 9.28829 1.91744 9.51029C2.12907 9.7323 2.4161 9.857 2.71539 9.857H3.27962V11.0407C3.28021 11.2476 3.33266 11.4506 3.4317 11.6295C3.53073 11.8084 3.67287 11.9568 3.84386 12.0599V21.6941H3.27962C2.98033 21.6941 2.6933 21.8188 2.48167 22.0408C2.27004 22.2628 2.15115 22.5639 2.15115 22.8778V24.6534C2.15115 24.9673 2.27004 25.2684 2.48167 25.4904C2.6933 25.7124 2.98033 25.8371 3.27962 25.8371H24.7206C25.0199 25.8371 25.3069 25.7124 25.5185 25.4904C25.7302 25.2684 25.8491 24.9673 25.8491 24.6534V22.8778C25.8491 22.5639 25.7302 22.2628 25.5185 22.0408C25.3069 21.8188 25.0199 21.6941 24.7206 21.6941H24.1564V12.0599C24.3273 11.9568 24.4695 11.8084 24.5685 11.6295C24.6676 11.4506 24.72 11.2476 24.7206 11.0407V9.857H25.2848C25.5841 9.857 25.8711 9.7323 26.0828 9.51029C26.2944 9.28829 26.4133 8.98721 26.4133 8.67329V6.70123C26.4132 6.45247 26.3385 6.21005 26.1996 6.0084C26.0608 5.80675 25.8649 5.65611 25.6397 5.57788ZM20.7709 12.0599V21.6941H18.514V12.0599C18.685 11.9568 18.8271 11.8084 18.9262 11.6295C19.0252 11.4506 19.0776 11.2476 19.0782 11.0407V9.857H20.2067V11.0407C20.2073 11.2476 20.2597 11.4506 20.3588 11.6295C20.4578 11.8084 20.6 11.9568 20.7709 12.0599ZM16.2571 12.2244H17.3855V21.6941H16.2571V12.2244ZM17.9498 11.0407H15.6928V9.857H17.9498V11.0407ZM15.1286 12.0599V21.6941H12.8716V12.0599C13.0426 11.9568 13.1848 11.8084 13.2838 11.6295C13.3828 11.4506 13.4353 11.2476 13.4359 11.0407V9.857H14.5643V11.0407C14.565 11.2476 14.6174 11.4506 14.7164 11.6295C14.8154 11.8084 14.9576 11.9568 15.1286 12.0599ZM10.6147 12.2244H11.7432V21.6941H10.6147V12.2244ZM12.3074 11.0407H10.0505V9.857H12.3074V11.0407ZM9.48622 12.0599V21.6941H7.22928V12.0599C7.40024 11.9568 7.54243 11.8084 7.64145 11.6295C7.74047 11.4506 7.79289 11.2476 7.79351 11.0407V9.857H8.92198V11.0407C8.9226 11.2476 8.97502 11.4506 9.07404 11.6295C9.17307 11.8084 9.31526 11.9568 9.48622 12.0599ZM6.66504 11.0407H4.40809V9.857H6.66504V11.0407ZM4.97233 12.2244H6.1008V21.6941H4.97233V12.2244ZM24.7206 22.8778V24.6534H3.27962V22.8778H24.7206ZM21.8994 21.6941V12.2244H23.0279V21.6941H21.8994ZM23.5921 11.0407H21.3352V9.857H23.5921V11.0407ZM2.71539 8.67329V6.70004L13.9307 2.75472L25.2848 6.70123V8.67329H2.71539Z" fill="#F16521"/>
</g>
<defs>
<clipPath id="clip0_0_127">
<rect width="26" height="25" fill="white" transform="translate(1 1.5)"/>
</clipPath>
</defs>
</svg>
