<svg width="28" height="21" viewBox="0 0 28 21" fill="none" xmlns="http://www.w3.org/2000/svg">
<g clip-path="url(#clip0_5_19896)">
<path fill-rule="evenodd" clip-rule="evenodd" d="M23.9918 0.150701C22.2873 0.150701 20.9007 1.53812 20.9007 3.24371C20.9007 4.04597 21.2148 4.7711 21.718 5.32192L18.9961 10.7012C18.6749 10.5878 18.3342 10.5139 17.9742 10.5139C17.3181 10.5139 16.7126 10.7225 16.2114 11.0725L12.757 9.39928C12.7926 9.212 12.8153 9.02084 12.8153 8.82384C12.8153 7.11824 11.4287 5.73083 9.72421 5.73083C8.02034 5.73083 6.6338 7.11824 6.6338 8.82384C6.6338 9.59822 6.92976 10.2987 7.40187 10.8418L4.67023 14.8479C4.44033 14.7928 4.20201 14.7558 3.95591 14.7558C2.25075 14.7558 0.863557 16.1433 0.863557 17.8489C0.863557 19.5538 2.25075 20.9419 3.95591 20.9419C5.65914 20.9419 7.04568 19.5538 7.04568 17.8489C7.04568 17.0971 6.76526 16.4167 6.31841 15.8802L9.07142 11.8443C9.28189 11.8896 9.49949 11.9162 9.72421 11.9162C10.5273 11.9162 11.2532 11.6013 11.8037 11.0971L15.045 12.6673C14.9485 12.9654 14.8831 13.277 14.8831 13.6069C14.8831 15.3125 16.2696 16.6999 17.9742 16.6999C19.6787 16.6999 21.0652 15.3125 21.0652 13.6069C21.0652 12.9828 20.8761 12.4042 20.5582 11.9175L23.4115 6.27776C23.6 6.31405 23.7923 6.33673 23.9918 6.33673C25.6963 6.33673 27.0822 4.94931 27.0822 3.24371C27.0822 1.53812 25.6963 0.150701 23.9918 0.150701Z" fill="black"/>
</g>
<defs>
<clipPath id="clip0_5_19896">
<rect width="27.2165" height="20.6845" fill="white" transform="scale(1.01525)"/>
</clipPath>
</defs>
</svg>
