<svg width="17" height="17" viewBox="0 0 17 17" fill="none" xmlns="http://www.w3.org/2000/svg">
<g clip-path="url(#clip0_5_20060)">
<path fill-rule="evenodd" clip-rule="evenodd" d="M14.4336 4.42551H16.502C16.777 4.42551 17 4.6485 17 4.92359C17 5.19865 16.777 5.42164 16.502 5.42164H14.7264C14.8501 5.97889 14.9139 6.55659 14.914 7.14498V9.85389C14.914 11.7521 14.2521 13.5393 13.0504 14.8864C11.8343 16.2493 10.2129 17 8.48473 17C6.75654 17 5.1351 16.2493 3.91906 14.8864C2.71728 13.5393 2.05544 11.7521 2.05544 9.85389V7.14614C2.05544 6.55732 2.11926 5.97922 2.24297 5.42161H0.498047C0.222992 5.42161 0 5.19861 0 4.92356C0 4.6485 0.222992 4.42551 0.498047 4.42551H2.53576C2.85145 3.57216 3.31762 2.7878 3.91906 2.11368C5.1351 0.750656 6.75654 0 8.48469 0C10.2127 0 11.834 0.75049 13.05 2.11325C13.6516 2.78744 14.1179 3.57196 14.4336 4.42551ZM13.3563 4.42551C12.4678 2.39537 10.618 0.996094 8.48473 0.996094C6.35129 0.996094 4.50148 2.39537 3.61303 4.42551H10.9787C10.3492 3.67814 9.46389 3.21207 8.48469 3.21207C8.20964 3.21207 7.98665 2.98908 7.98665 2.71402C7.98665 2.43897 8.20964 2.21598 8.48469 2.21598C10.0321 2.21598 11.3975 3.09496 12.1957 4.42551H13.3563ZM8.48469 16.0039C11.4806 16.0039 13.9179 13.245 13.9179 9.85386H13.9179V7.14518C13.9178 6.54703 13.8416 5.96869 13.7001 5.42157H12.6557C12.8373 5.9584 12.9369 6.53919 12.937 7.14531V7.14545C12.937 7.42053 12.714 7.64359 12.4389 7.64359C12.1639 7.64359 11.9409 7.4207 11.9409 7.14564V7.14558C11.9408 6.52757 11.8147 5.9425 11.5906 5.42161L8.48473 5.42801C7.66912 5.42801 7.00559 6.19876 7.00559 7.14611V9.85386C7.00559 10.1289 6.7826 10.3519 6.50755 10.3519C6.23249 10.3519 6.0095 10.1289 6.0095 9.85386V7.14611C6.0095 6.48311 6.22041 5.88383 6.57369 5.42157H3.26928C3.12777 5.96899 3.05153 6.54762 3.05153 7.14611V9.85386C3.05153 13.245 5.48884 16.0039 8.48469 16.0039ZM11.9416 9.85423C11.9416 9.57918 12.1646 9.35618 12.4396 9.35618C12.7147 9.35618 12.9377 9.57918 12.9377 9.85423C12.9377 12.5727 10.9404 14.7844 8.48544 14.7844C6.03047 14.7844 4.0332 12.5727 4.0332 9.85423V7.14648C4.0332 6.87143 4.2562 6.64844 4.53125 6.64844C4.8063 6.64844 5.0293 6.87143 5.0293 7.14648V9.85423C5.0293 12.0235 6.57972 13.7883 8.48544 13.7883C10.3912 13.7883 11.9416 12.0235 11.9416 9.85423ZM8.98242 9.70387C8.98242 9.97892 8.75943 10.2019 8.48438 10.2019C8.20932 10.2019 7.98633 9.97892 7.98633 9.70387V7.29688C7.98633 7.02182 8.20932 6.79883 8.48438 6.79883C8.75943 6.79883 8.98242 7.02182 8.98242 7.29688V9.70387ZM8.48438 12.5687C9.84919 12.5687 10.9596 11.3511 10.9596 9.85447V7.14638C10.9596 6.87133 10.7366 6.64844 10.4616 6.64844C10.1865 6.64844 9.96351 6.8715 9.96351 7.14655V9.85447C9.96351 10.8018 9.29998 11.5726 8.48438 11.5726C8.20932 11.5726 7.98633 11.7956 7.98633 12.0706C7.98633 12.3457 8.20932 12.5687 8.48438 12.5687Z" fill="#E4652E"/>
</g>
<defs>
<clipPath id="clip0_5_20060">
<rect width="17" height="17" fill="white"/>
</clipPath>
</defs>
</svg>
