<svg width="84" height="24" viewBox="0 0 84 24" fill="none" xmlns="http://www.w3.org/2000/svg">
<path fill-rule="evenodd" clip-rule="evenodd" d="M76.0163 20.2222C73.5116 20.4206 71.4305 18.749 71.4305 15.8313C71.4305 12.9168 73.5073 11.2784 76.0084 11.469C81.1854 11.8632 81.192 19.8124 76.0163 20.2222ZM83.9999 9.24493H83.9984V8.93971C83.9984 8.7785 83.8676 8.64788 83.7061 8.64788H80.7001C80.5387 8.64788 80.4078 8.7785 80.4078 8.93971V9.23452L80.4095 9.236H80.4078V9.30763C80.393 9.45014 80.2257 9.49524 80.1252 9.39388C79.5368 8.80068 77.5913 8.25172 75.8178 8.25172C71.5796 8.22235 68.2539 10.8372 68.2539 15.8313C68.2539 20.9136 71.4323 23.5576 75.7296 23.5286C77.3301 23.4993 79.1668 23.2998 80.4077 21.6481V23.2859C80.4077 23.447 80.5387 23.5776 80.7001 23.5776H83.7061C83.8676 23.5776 83.9984 23.447 83.9984 23.2859V22.7294L83.9999 22.2337V9.24493Z" fill="#F16521"/>
<path fill-rule="evenodd" clip-rule="evenodd" d="M14.4951 17.1239C14.7305 18.9159 16.2905 20.2087 18.8215 20.2087C20.1459 20.2087 21.8824 19.7091 22.7065 18.8574L25.0023 21.1193C23.4718 22.7057 20.97 23.4695 18.7625 23.4695C13.7591 23.4695 10.7865 20.3848 10.7865 15.743C10.7865 11.3365 13.7887 8.16367 18.4978 8.16367C23.3542 8.16367 26.3854 11.1603 25.8264 17.1239H14.4951ZM22.3828 14.1566C22.1474 12.2765 20.6758 11.3365 18.6155 11.3365C16.6729 11.3365 15.0835 12.2765 14.5539 14.1566H22.3828Z" fill="#F16521"/>
<mask id="mask0_5_19766" style="mask-type:alpha" maskUnits="userSpaceOnUse" x="0" y="8" width="12" height="16">
<path d="M5.70982 23.5833H0V8.71795H11.4196V23.5833H5.70982Z" fill="white"/>
</mask>
<g mask="url(#mask0_5_19766)">
<path fill-rule="evenodd" clip-rule="evenodd" d="M7.68192 8.71795C6.21048 8.71795 4.70906 8.98252 3.59088 10.7745V9.35787C3.59088 9.19678 3.45998 9.06617 3.29847 9.06617H0.292541C0.131029 9.06617 0 9.19678 0 9.35787V10.22V10.7578V11.2349V12.6416V20.6916V21.4481L0.00344166 21.452L0 21.454V22.5156V23.2913C0 23.4525 0.131029 23.5833 0.292541 23.5833H3.29847C3.45998 23.5833 3.59088 23.4525 3.59088 23.2913V21.7804C3.59088 21.7071 3.59936 21.6377 3.59088 21.5671V19.3191V15.9449C3.59088 13.2718 5.3272 12.2728 7.2109 12.2728C8.38807 12.2728 9.0651 12.5959 9.80112 13.2127L11.4197 10.0988C10.6252 9.30558 9.18273 8.71795 7.68192 8.71795Z" fill="#F16521"/>
</g>
<mask id="mask1_5_19766" style="mask-type:alpha" maskUnits="userSpaceOnUse" x="52" y="9" width="4" height="15">
<path d="M52.1944 23.5832H55.7879V9.0412H52.1944V23.5832Z" fill="white"/>
</mask>
<g mask="url(#mask1_5_19766)">
<path fill-rule="evenodd" clip-rule="evenodd" d="M55.7879 21.7588V15.8275H55.7865V9.33291C55.7865 9.17181 55.6556 9.0412 55.494 9.0412H52.4882C52.3267 9.0412 52.1955 9.17181 52.1955 9.33291V19.0214C52.1955 19.0265 52.197 19.0313 52.1972 19.0364V21.4481L52.202 21.4539H52.1955V21.7637C52.1951 21.7721 52.1944 21.7809 52.1944 21.7897C52.1944 21.7984 52.1951 21.8071 52.1955 21.8158V23.2913C52.1955 23.4525 52.3267 23.5832 52.4882 23.5832H55.494C55.6556 23.5832 55.7865 23.4525 55.7865 23.2913V21.8164C55.7866 21.8073 55.7879 21.7985 55.7879 21.7897C55.7879 21.7809 55.787 21.7721 55.7865 21.7636V21.7589L55.7879 21.7588Z" fill="#F16521"/>
</g>
<path fill-rule="evenodd" clip-rule="evenodd" d="M43.8783 8.89441C41.9947 8.89441 40.317 9.48179 39.022 11.5383C38.1978 9.54053 36.4614 8.83568 34.725 8.83568C33.3415 8.83568 31.664 9.36431 30.8989 10.8332V9.358C30.8989 9.19678 30.7679 9.06617 30.6064 9.06617H27.6005C27.439 9.06617 27.308 9.19678 27.308 9.358V11.2055V12.6417V20.002V21.4483V23.2857C27.308 23.4468 27.439 23.5776 27.6005 23.5776H30.6064C30.7679 23.5776 30.8989 23.4468 30.8989 23.2857V21.4483V15.8277C30.8989 13.918 32.0467 12.1847 33.9892 12.1847C35.961 12.1847 36.9618 13.918 36.9618 15.8277V21.4483L36.971 21.4593V23.2914C36.971 23.4527 37.1019 23.5833 37.2634 23.5833H40.2693C40.4309 23.5833 40.5619 23.4527 40.5619 23.2914V19.3192H40.5524V15.8277C40.5524 13.918 41.7591 12.2434 43.7017 12.2434C45.6441 12.2434 46.4389 13.8592 46.4389 15.7687V20.002H46.4387V23.2857C46.4387 23.4468 46.5697 23.5776 46.7311 23.5776H49.737C49.8986 23.5776 50.0295 23.4468 50.0295 23.2857V21.4483V20.002V15.7687C50.0295 11.4209 47.9987 8.89441 43.8783 8.89441Z" fill="#F16521"/>
<path fill-rule="evenodd" clip-rule="evenodd" d="M40.5385 6.049C39.8165 6.7769 38.6458 6.7769 37.9238 6.049C37.2018 5.3211 37.2018 4.14089 37.9238 3.41299C38.6458 2.6851 39.8165 2.6851 40.5385 3.41299C41.2605 4.14089 41.2605 5.3211 40.5385 6.049Z" fill="#F16521"/>
<path fill-rule="evenodd" clip-rule="evenodd" d="M40.5385 3.41302C41.2605 4.14091 41.2605 5.32112 40.5385 6.04902C39.8165 6.77692 38.6458 6.77692 37.9238 6.04902" fill="#D95129"/>
<path fill-rule="evenodd" clip-rule="evenodd" d="M47.9834 5.87083C47.0257 6.83629 45.473 6.83629 44.5154 5.87083C43.5579 4.90538 43.5579 3.34004 44.5154 2.37458C45.473 1.40926 47.0257 1.40926 47.9834 2.37458C48.941 3.34004 48.941 4.90538 47.9834 5.87083Z" fill="#F16521"/>
<path fill-rule="evenodd" clip-rule="evenodd" d="M47.9833 2.37459C48.941 3.34004 48.941 4.90539 47.9833 5.87084C47.0257 6.83617 45.473 6.83617 44.5154 5.87084" fill="#D95129"/>
<path fill-rule="evenodd" clip-rule="evenodd" d="M56.4175 5.62892C55.1403 6.91657 53.0695 6.91657 51.792 5.62892C50.5149 4.34128 50.5149 2.2535 51.792 0.965731C53.0695 -0.32191 55.1403 -0.32191 56.4175 0.965731C57.6949 2.2535 57.6949 4.34128 56.4175 5.62892Z" fill="#1CA78B"/>
<path fill-rule="evenodd" clip-rule="evenodd" d="M56.4177 0.965827C57.695 2.25347 57.695 4.34125 56.4177 5.62902C55.1404 6.91666 53.0697 6.91666 51.7922 5.62902" fill="#178972"/>
<path fill-rule="evenodd" clip-rule="evenodd" d="M67.4127 19.6275C67.4127 19.6275 66.7503 19.844 66.3263 19.9505C65.9026 20.0575 65.5402 20.1111 65.2402 20.1111C65.0105 20.1111 64.794 20.0843 64.5911 20.031C64.3876 19.9773 64.207 19.8797 64.0478 19.7372C63.8888 19.5948 63.7604 19.3989 63.6635 19.1494C63.5664 18.9002 63.518 18.5797 63.518 18.1878V10.3985H67.2113C67.3712 10.3985 67.5007 10.2664 67.5007 10.1037V7.0733C67.5007 6.91047 67.3712 6.77837 67.2113 6.77837H63.518V2.33241H62.2726C61.99 3.95289 61.4647 5.27052 60.6963 6.28542C59.928 7.30069 58.9253 8.06638 57.6892 8.58263V10.3189H59.7027V17.9208C59.7027 18.8824 59.7865 19.7196 59.9545 20.4314C60.1222 21.1438 60.3916 21.7315 60.7625 22.1945C61.1334 22.6577 61.6277 23.0003 62.2461 23.2228C62.8642 23.4451 64.0429 23.5746 64.9433 23.5567C67.0782 23.5145 67.9381 22.9328 68.327 22.683L67.4127 19.6275Z" fill="#F16521"/>
</svg>
