<svg width="21" height="21" viewBox="0 0 21 21" fill="none" xmlns="http://www.w3.org/2000/svg">
<g clip-path="url(#clip0_0_101)">
<g clip-path="url(#clip1_0_101)">
<path d="M0 3.48016C0 2.68116 0.647973 2.03318 1.44697 2.03318H18.8107C19.611 2.03318 20.2576 2.68116 20.2576 3.48016C20.2576 4.28052 19.611 4.92713 18.8107 4.92713H1.44697C0.647973 4.92713 0 4.28052 0 3.48016ZM0 10.715C0 9.91467 0.647973 9.26806 1.44697 9.26806H18.8107C19.611 9.26806 20.2576 9.91467 20.2576 10.715C20.2576 11.5154 19.611 12.162 18.8107 12.162H1.44697C0.647973 12.162 0 11.5154 0 10.715ZM18.8107 19.3969H1.44697C0.647973 19.3969 0 18.7503 0 17.9499C0 17.1495 0.647973 16.5029 1.44697 16.5029H18.8107C19.611 16.5029 20.2576 17.1495 20.2576 17.9499C20.2576 18.7503 19.611 19.3969 18.8107 19.3969Z" fill="#656565"/>
</g>
</g>
<defs>
<clipPath id="clip0_0_101">
<rect width="20.733" height="20.733" fill="white" transform="scale(1.01288)"/>
</clipPath>
<clipPath id="clip1_0_101">
<rect width="20" height="22.8571" fill="white" transform="translate(0 -0.860554) scale(1.01288)"/>
</clipPath>
</defs>
</svg>
