<svg width="12" height="12" viewBox="0 0 12 12" fill="none" xmlns="http://www.w3.org/2000/svg">
<g clip-path="url(#clip0_5_18189)">
<path d="M4.04596 1.09091C4.04596 0.733183 4.32514 0.471743 4.68286 0.471743H7.30107C7.65868 0.471743 7.93785 0.733183 7.93785 1.09091V1.76904H8.4096V1.09091C8.4096 0.473126 7.91885 0 7.30107 0H4.68286C4.06508 0 3.57422 0.473126 3.57422 1.09091V1.76904H4.04596V1.09091Z" fill="#F14336"/>
<path d="M3.20145 12.0002H8.7798C9.31765 12.0002 9.73504 11.5271 9.73504 10.9388V3.65625H2.24609V10.9388C2.24609 11.5271 2.66348 12.0002 3.20145 12.0002ZM7.49425 4.78252C7.49425 4.65226 7.59986 4.54664 7.73012 4.54664C7.86038 4.54664 7.966 4.65226 7.966 4.78252V10.355C7.966 10.4853 7.86038 10.5909 7.73012 10.5909C7.59986 10.5909 7.49425 10.4853 7.49425 10.355V4.78252ZM5.75469 4.78252C5.75469 4.65226 5.86031 4.54664 5.99057 4.54664C6.12082 4.54664 6.22644 4.65226 6.22644 4.78252V10.355C6.22644 10.4853 6.12082 10.5909 5.99057 10.5909C5.86031 10.5909 5.75469 10.4853 5.75469 10.355V4.78252ZM4.01514 4.78252C4.01514 4.65226 4.12075 4.54664 4.25101 4.54664C4.38127 4.54664 4.48688 4.65226 4.48688 4.78252V10.355C4.48688 10.4853 4.38127 10.5909 4.25101 10.5909C4.12075 10.5909 4.01514 10.4853 4.01514 10.355V4.78252Z" fill="#F14336"/>
<path d="M2.0057 3.18424H9.97813C10.3038 3.18424 10.5678 2.92027 10.5678 2.59456C10.5678 2.26886 10.3038 2.00488 9.97813 2.00488H2.0057C1.67999 2.00488 1.41602 2.26886 1.41602 2.59456C1.41602 2.92027 1.67999 3.18424 2.0057 3.18424Z" fill="#F14336"/>
</g>
<defs>
<clipPath id="clip0_5_18189">
<rect width="12" height="12" fill="white"/>
</clipPath>
</defs>
</svg>
