<svg width="31" height="31" viewBox="0 0 31 31" fill="none" xmlns="http://www.w3.org/2000/svg">
<g clip-path="url(#clip0_5_19811)">
<path d="M16.976 9.30064C16.5324 9.25267 16.0818 9.22517 15.625 9.21833C13.6289 9.22719 11.5597 9.71273 9.60106 10.6431C8.14681 11.3623 6.73021 12.3777 5.49995 13.6302C4.89575 14.2696 4.1246 15.1954 4 16.1831C4.01472 17.0387 4.93296 18.0948 5.49995 18.736C6.6536 19.9393 8.03331 20.9257 9.60106 21.7232C9.65434 21.749 9.70782 21.7746 9.76141 21.7998L8.30689 24.3399L10.2832 25.5079L20.9669 6.90728L19.0646 5.74463L16.976 9.30064ZM21.4872 10.5693L20.0354 13.0853C20.7033 13.9529 21.0998 15.0229 21.0998 16.1831C21.0998 19.075 18.6484 21.4195 15.6236 21.4195C15.4928 21.4195 15.3661 21.4054 15.2376 21.3968L14.2769 23.0599C14.7199 23.1074 15.1679 23.1419 15.625 23.1479C17.623 23.1389 19.691 22.6478 21.6475 21.7232C23.1018 21.0039 24.5198 19.9885 25.75 18.736C26.3543 18.0967 27.1254 17.1709 27.25 16.1831C27.2353 15.3275 26.317 14.2714 25.75 13.6302C24.5964 12.4269 23.2153 11.4406 21.6475 10.6431C21.5946 10.6174 21.5404 10.5943 21.4872 10.5693ZM15.6236 10.9468C15.7562 10.9468 15.8878 10.9521 16.0181 10.961L14.8928 12.9093C13.3134 13.2295 12.1284 14.5733 12.1284 16.1817C12.1284 16.5858 12.2028 16.9726 12.3399 17.3311C12.34 17.3315 12.3397 17.3322 12.3399 17.3326L11.2117 19.2866C10.5423 18.4182 10.1474 17.3447 10.1474 16.1831C10.1474 13.2913 12.5988 10.9468 15.6236 10.9468ZM18.8974 15.055L16.3615 19.4484C17.9323 19.1222 19.1088 17.7846 19.1088 16.1817C19.1088 15.785 19.0297 15.4079 18.8974 15.055Z" fill="#707273" fill-opacity="0.3"/>
</g>
<defs>
<clipPath id="clip0_5_19811">
<rect width="23.25" height="23.25" fill="white" transform="translate(4 4)"/>
</clipPath>
</defs>
</svg>
