<svg width="24" height="24" viewBox="0 0 24 24" fill="none" xmlns="http://www.w3.org/2000/svg">
<path d="M23.4284 4.82356H17.4056V2.0373C17.4026 1.76632 17.3533 1.49867 17.2603 1.24964C17.1673 1.0006 17.0327 0.775054 16.8639 0.585891C16.6952 0.396727 16.4957 0.247635 16.2768 0.147133C16.058 0.04663 15.8241 -0.00331245 15.5885 0.000170386H2.57141C1.89337 0.000130957 1.24276 0.308079 0.761172 0.856974C0.279598 1.40587 0.00602281 2.15129 0 2.93101V23.0263C0.00238855 23.1538 0.0357711 23.278 0.096365 23.3848C0.156947 23.4917 0.24233 23.577 0.342855 23.6308C0.445334 23.6776 0.556979 23.6913 0.665732 23.6704C0.774474 23.6496 0.876222 23.595 0.959993 23.5126L2.29713 22.1326L3.64569 23.5126C3.75068 23.6215 3.88709 23.6818 4.02854 23.6818C4.16998 23.6818 4.30639 23.6215 4.4114 23.5126L5.74853 22.1326L7.09709 23.5126C7.20209 23.6215 7.3385 23.6818 7.47995 23.6818C7.62139 23.6818 7.7578 23.6215 7.86279 23.5126L9.21136 22.1326L10.5485 23.5126C10.6535 23.6215 10.7899 23.6818 10.9314 23.6818C11.0727 23.6818 11.2092 23.6215 11.3142 23.5126L12.6513 22.1326L13.9999 23.5126C14.0823 23.5977 14.1841 23.6541 14.2935 23.675C14.4028 23.6959 14.515 23.6807 14.617 23.6308C14.7162 23.5763 14.8 23.4906 14.8586 23.3836C14.9173 23.2767 14.9485 23.1527 14.9485 23.0263V21.712H23.4284C23.58 21.712 23.7253 21.6427 23.8324 21.5196C23.9396 21.3963 23.9998 21.2291 23.9998 21.0549V5.4807C23.9998 5.30642 23.9396 5.13927 23.8324 5.01603C23.7253 4.8928 23.58 4.82356 23.4284 4.82356ZM13.8056 2.0373V21.5543L13.0399 20.7657C12.9349 20.6568 12.7984 20.5964 12.6571 20.5964C12.5156 20.5964 12.3792 20.6568 12.2742 20.7657L10.9256 22.1457L9.5885 20.7657C9.4835 20.6568 9.34709 20.5964 9.20565 20.5964C9.0642 20.5964 8.92779 20.6568 8.82279 20.7657L7.47423 22.1457L6.1371 20.7657C6.03084 20.6547 5.89212 20.5937 5.74853 20.5949C5.67895 20.5933 5.6098 20.6075 5.54506 20.6368C5.48031 20.6661 5.42129 20.71 5.37139 20.7657L4.02283 22.1457L2.68569 20.7657C2.58069 20.6568 2.44428 20.5964 2.30284 20.5964C2.16139 20.5964 2.02498 20.6568 1.91999 20.7657L1.14285 21.5543V2.93101C1.14884 2.49986 1.30199 2.08873 1.56926 1.78629C1.83651 1.48386 2.19645 1.31438 2.57141 1.31445H13.9313C13.8518 1.54468 13.8092 1.78958 13.8056 2.0373ZM14.9485 2.0373C14.9569 1.84649 15.0274 1.66633 15.146 1.53246C15.2645 1.39859 15.4224 1.32078 15.5885 1.31445C15.7613 1.31445 15.9269 1.39337 16.049 1.53386C16.1712 1.67435 16.2399 1.86489 16.2399 2.06358V4.82356H14.9485V2.0373ZM22.857 20.4372H14.9485V11.2898H22.857V20.4372ZM22.857 9.98866H14.9485V8.75325H22.857V9.98866ZM22.857 7.45212H14.9485V6.13784H22.857V7.45212Z" fill="#F16521"/>
<path d="M23.4284 4.82356H17.4056V2.0373C17.4026 1.76632 17.3533 1.49867 17.2603 1.24964C17.1673 1.0006 17.0327 0.775054 16.8639 0.585891C16.6952 0.396727 16.4957 0.247635 16.2768 0.147133C16.058 0.04663 15.8241 -0.00331245 15.5885 0.000170386H2.57141C1.89337 0.000130957 1.24276 0.308079 0.761172 0.856974C0.279598 1.40587 0.00602281 2.15129 0 2.93101V23.0263C0.00238855 23.1538 0.0357711 23.278 0.096365 23.3848C0.156947 23.4917 0.24233 23.577 0.342855 23.6308C0.445334 23.6776 0.556979 23.6913 0.665732 23.6704C0.774474 23.6496 0.876222 23.595 0.959993 23.5126L2.29713 22.1326L3.64569 23.5126C3.75068 23.6215 3.88709 23.6818 4.02854 23.6818C4.16998 23.6818 4.30639 23.6215 4.4114 23.5126L5.74853 22.1326L7.09709 23.5126C7.20209 23.6215 7.3385 23.6818 7.47995 23.6818C7.62139 23.6818 7.7578 23.6215 7.86279 23.5126L9.21136 22.1326L10.5485 23.5126C10.6535 23.6215 10.7899 23.6818 10.9314 23.6818C11.0727 23.6818 11.2092 23.6215 11.3142 23.5126L12.6513 22.1326L13.9999 23.5126C14.0823 23.5977 14.1841 23.6541 14.2935 23.675C14.4028 23.6959 14.515 23.6807 14.617 23.6308C14.7162 23.5763 14.8 23.4906 14.8586 23.3836C14.9173 23.2767 14.9485 23.1527 14.9485 23.0263V21.712H23.4284C23.58 21.712 23.7253 21.6427 23.8324 21.5196C23.9396 21.3963 23.9998 21.2291 23.9998 21.0549V5.4807C23.9998 5.30642 23.9396 5.13927 23.8324 5.01603C23.7253 4.8928 23.58 4.82356 23.4284 4.82356ZM13.8056 2.0373V21.5543L13.0399 20.7657C12.9349 20.6568 12.7984 20.5964 12.6571 20.5964C12.5156 20.5964 12.3792 20.6568 12.2742 20.7657L10.9256 22.1457L9.5885 20.7657C9.4835 20.6568 9.34709 20.5964 9.20565 20.5964C9.0642 20.5964 8.92779 20.6568 8.82279 20.7657L7.47423 22.1457L6.1371 20.7657C6.03084 20.6547 5.89212 20.5937 5.74853 20.5949C5.67895 20.5933 5.6098 20.6075 5.54506 20.6368C5.48031 20.6661 5.42129 20.71 5.37139 20.7657L4.02283 22.1457L2.68569 20.7657C2.58069 20.6568 2.44428 20.5964 2.30284 20.5964C2.16139 20.5964 2.02498 20.6568 1.91999 20.7657L1.14285 21.5543V2.93101C1.14884 2.49986 1.30199 2.08873 1.56926 1.78629C1.83651 1.48386 2.19645 1.31438 2.57141 1.31445H13.9313C13.8518 1.54468 13.8092 1.78958 13.8056 2.0373ZM14.9485 2.0373C14.9569 1.84649 15.0274 1.66633 15.146 1.53246C15.2645 1.39859 15.4224 1.32078 15.5885 1.31445C15.7613 1.31445 15.9269 1.39337 16.049 1.53386C16.1712 1.67435 16.2399 1.86489 16.2399 2.06358V4.82356H14.9485V2.0373ZM22.857 20.4372H14.9485V11.2898H22.857V20.4372ZM22.857 9.98866H14.9485V8.75325H22.857V9.98866ZM22.857 7.45212H14.9485V6.13784H22.857V7.45212Z" stroke="#F16521"/>
</svg>
