<svg width="28" height="28" viewBox="0 0 28 28" fill="none" xmlns="http://www.w3.org/2000/svg">
<g clip-path="url(#clip0_0_107)">
<path d="M3.84375 21.0312L5.875 17.75C7.04687 15.9531 9 14.7812 11.1875 14.7812H16.3438C16.3438 16.5 14.9375 17.9062 13.2188 17.9062H11.6562" stroke="#F16521" stroke-width="1.6" stroke-miterlimit="10" stroke-linecap="round" stroke-linejoin="round"/>
<path d="M13.2188 17.9062H19.4688L20.4063 16.6562C21.2656 15.4844 22.6719 14.7812 24.1562 14.7812L22.0469 18.5312C20.9531 20.5625 18.7656 21.8125 16.5 21.8125C12.8281 21.8125 9.23438 22.9063 6.1875 24.9375" stroke="#F16521" stroke-width="1.6" stroke-miterlimit="10" stroke-linecap="round" stroke-linejoin="round"/>
<path d="M22.5938 3.0625H5.40625V12.4375H22.5938V3.0625Z" stroke="#F16521" stroke-width="1.6" stroke-miterlimit="10" stroke-linecap="round" stroke-linejoin="round"/>
<path d="M22.5938 6.1875C20.875 6.1875 19.4688 4.78125 19.4688 3.0625" stroke="#F16521" stroke-width="1.6" stroke-miterlimit="10" stroke-linecap="round" stroke-linejoin="round"/>
<path d="M5.40625 9.3125C7.125 9.3125 8.53125 10.7187 8.53125 12.4375" stroke="#F16521" stroke-width="1.6" stroke-miterlimit="10" stroke-linecap="round" stroke-linejoin="round"/>
<path d="M14 10.0938C15.2944 10.0938 16.3438 9.04442 16.3438 7.75C16.3438 6.45558 15.2944 5.40625 14 5.40625C12.7056 5.40625 11.6562 6.45558 11.6562 7.75C11.6562 9.04442 12.7056 10.0938 14 10.0938Z" stroke="#F16521" stroke-width="1.6" stroke-miterlimit="10" stroke-linecap="round" stroke-linejoin="round"/>
<path d="M8.53125 3.0625C8.53125 4.78125 7.125 6.1875 5.40625 6.1875" stroke="#F16521" stroke-width="1.6" stroke-miterlimit="10" stroke-linecap="round" stroke-linejoin="round"/>
<path d="M22.5938 9.3125C20.875 9.3125 19.4688 10.7187 19.4688 12.4375" stroke="#F16521" stroke-width="1.6" stroke-miterlimit="10" stroke-linecap="round" stroke-linejoin="round"/>
</g>
<defs>
<clipPath id="clip0_0_107">
<rect width="25" height="25" fill="white" transform="translate(1.5 1.5)"/>
</clipPath>
</defs>
</svg>
