<svg width="28" height="28" viewBox="0 0 28 28" fill="none" xmlns="http://www.w3.org/2000/svg">
<path d="M24.1562 21.0312H3.84375C3.63655 21.0312 3.43784 20.9489 3.29132 20.8024C3.14481 20.6559 3.0625 20.4572 3.0625 20.25V3.84375C3.0625 3.63655 3.14481 3.43784 3.29132 3.29132C3.43784 3.14481 3.63655 3.0625 3.84375 3.0625H24.1562C24.3635 3.0625 24.5622 3.14481 24.7087 3.29132C24.8552 3.43784 24.9375 3.63655 24.9375 3.84375V20.25C24.9375 20.4572 24.8552 20.6559 24.7087 20.8024C24.5622 20.9489 24.3635 21.0312 24.1562 21.0312ZM4.625 19.4688H23.375V4.625H4.625V19.4688Z" fill="#F16521"/>
<path d="M17.9062 24.9375H10.0937C9.96572 24.9377 9.83966 24.9064 9.72659 24.8465C9.61352 24.7866 9.51691 24.6998 9.44525 24.5938C9.37399 24.4882 9.32962 24.3668 9.316 24.2402C9.30238 24.1135 9.31993 23.9855 9.36712 23.8672L10.9296 19.9609C10.9875 19.8156 11.0877 19.6909 11.2173 19.6032C11.3468 19.5154 11.4997 19.4686 11.6562 19.4688H16.3437C16.5002 19.4686 16.6531 19.5154 16.7826 19.6032C16.9121 19.6909 17.0124 19.8156 17.0702 19.9609L18.6327 23.8672C18.6799 23.9855 18.6975 24.1135 18.6839 24.2402C18.6703 24.3668 18.6259 24.4882 18.5546 24.5938C18.483 24.6998 18.3863 24.7866 18.2733 24.8465C18.1602 24.9064 18.0342 24.9377 17.9062 24.9375ZM11.2499 23.375H16.7187L15.7812 21.0313H12.1874L11.2499 23.375Z" fill="#F16521"/>
<path d="M24.1562 18.2031H3.84375C3.63655 18.2031 3.43784 18.1208 3.29132 17.9743C3.14481 17.8278 3.0625 17.6291 3.0625 17.4219C3.0625 17.2147 3.14481 17.016 3.29132 16.8694C3.43784 16.7229 3.63655 16.6406 3.84375 16.6406H24.1562C24.3635 16.6406 24.5622 16.7229 24.7087 16.8694C24.8552 17.016 24.9375 17.2147 24.9375 17.4219C24.9375 17.6291 24.8552 17.8278 24.7087 17.9743C24.5622 18.1208 24.3635 18.2031 24.1562 18.2031Z" fill="#F16521"/>
<path d="M9.3125 15.5625C9.1053 15.5625 8.90659 15.4802 8.76007 15.3337C8.61356 15.1872 8.53125 14.9885 8.53125 14.7812V11.6562C8.53125 11.449 8.61356 11.2503 8.76007 11.1038C8.90659 10.9573 9.1053 10.875 9.3125 10.875C9.5197 10.875 9.71841 10.9573 9.86493 11.1038C10.0114 11.2503 10.0938 11.449 10.0938 11.6562V14.7812C10.0938 14.9885 10.0114 15.1872 9.86493 15.3337C9.71841 15.4802 9.5197 15.5625 9.3125 15.5625Z" fill="#F16521"/>
<path d="M11.6562 15.5625C11.449 15.5625 11.2503 15.4802 11.1038 15.3337C10.9573 15.1872 10.875 14.9885 10.875 14.7812V10.0938C10.875 9.88655 10.9573 9.68784 11.1038 9.54132C11.2503 9.39481 11.449 9.3125 11.6562 9.3125C11.8635 9.3125 12.0622 9.39481 12.2087 9.54132C12.3552 9.68784 12.4375 9.88655 12.4375 10.0938V14.7812C12.4375 14.9885 12.3552 15.1872 12.2087 15.3337C12.0622 15.4802 11.8635 15.5625 11.6562 15.5625Z" fill="#F16521"/>
<path d="M14 15.5625C13.7928 15.5625 13.5941 15.4802 13.4476 15.3337C13.3011 15.1872 13.2188 14.9885 13.2188 14.7812V7.75C13.2188 7.5428 13.3011 7.34409 13.4476 7.19757C13.5941 7.05106 13.7928 6.96875 14 6.96875C14.2072 6.96875 14.4059 7.05106 14.5524 7.19757C14.6989 7.34409 14.7812 7.5428 14.7812 7.75V14.7812C14.7812 14.9885 14.6989 15.1872 14.5524 15.3337C14.4059 15.4802 14.2072 15.5625 14 15.5625Z" fill="#F16521"/>
<path d="M16.3438 15.5625C16.1365 15.5625 15.9378 15.4802 15.7913 15.3337C15.6448 15.1872 15.5625 14.9885 15.5625 14.7812V9.3125C15.5625 9.1053 15.6448 8.90659 15.7913 8.76007C15.9378 8.61356 16.1365 8.53125 16.3438 8.53125C16.551 8.53125 16.7497 8.61356 16.8962 8.76007C17.0427 8.90659 17.125 9.1053 17.125 9.3125V14.7812C17.125 14.9885 17.0427 15.1872 16.8962 15.3337C16.7497 15.4802 16.551 15.5625 16.3438 15.5625Z" fill="#F16521"/>
<path d="M18.6875 15.5625C18.4803 15.5625 18.2816 15.4802 18.1351 15.3337C17.9886 15.1872 17.9062 14.9885 17.9062 14.7812V10.0938C17.9062 9.88655 17.9886 9.68784 18.1351 9.54132C18.2816 9.39481 18.4803 9.3125 18.6875 9.3125C18.8947 9.3125 19.0934 9.39481 19.2399 9.54132C19.3864 9.68784 19.4688 9.88655 19.4688 10.0938V14.7812C19.4688 14.9885 19.3864 15.1872 19.2399 15.3337C19.0934 15.4802 18.8947 15.5625 18.6875 15.5625Z" fill="#F16521"/>
<path d="M21.8125 24.9375H6.1875C5.9803 24.9375 5.78159 24.8552 5.63507 24.7087C5.48856 24.5622 5.40625 24.3635 5.40625 24.1562C5.40625 23.949 5.48856 23.7503 5.63507 23.6038C5.78159 23.4573 5.9803 23.375 6.1875 23.375H21.8125C22.0197 23.375 22.2184 23.4573 22.3649 23.6038C22.5114 23.7503 22.5938 23.949 22.5938 24.1562C22.5938 24.3635 22.5114 24.5622 22.3649 24.7087C22.2184 24.8552 22.0197 24.9375 21.8125 24.9375Z" fill="#F16521"/>
</svg>
